<svg width="64" height="64" viewBox="0 0 64 64" fill="none" xmlns="http://www.w3.org/2000/svg">
<path opacity="0.3" d="M47.9331 5.61413C45.8527 4.18485 43.5168 3.04876 41.2175 2.05926C39.0276 1.1064 36.6918 0.703277 34.3194 0.300147C33.115 0.0802583 31.9105 -0.0297041 30.7061 0.00694405C28.4067 0.0435922 25.9614 0.153555 23.662 0.666629C18.8443 1.80272 15.1215 3.70841 11.1798 6.60361C9.35488 7.9596 7.89496 9.79201 6.43505 11.5145C5.5956 12.5406 4.86566 13.6034 4.28169 14.7762C2.20131 18.8808 0.704885 22.9853 0.522396 27.6763C0.412902 30.6815 0.704894 33.5034 1.39835 36.252C1.36185 36.7651 1.36186 37.2781 1.36186 37.8279C1.32537 43.9848 2.96777 49.4453 6.65405 54.3928C9.42788 58.131 13.6251 60.733 17.8954 62.3821C25.8519 65.4239 35.1588 63.9214 42.5314 60C46.1082 58.0943 49.612 55.7488 52.6413 53.0735C56.5831 49.5553 59.3934 45.5606 61.5468 40.7964C63.4812 36.5085 63.8096 31.671 63.2622 27.0167C62.7147 22.1058 60.0869 17.4881 57.021 13.7134C54.4297 10.6716 51.2179 7.88632 47.9331 5.61413Z" fill="#B7C06F"/>
<path d="M19.2732 35.5897C19.2732 39.2623 22.5389 42.9461 25.7482 42.9461C28.6184 42.9461 30.0762 40.4036 31.6356 35.9174C31.726 35.9174 31.8277 35.9061 31.9294 35.8948C32.0876 35.8835 32.2345 35.8722 32.3701 35.8383V40.5279C32.3701 42.641 33.4662 43.7824 35.5229 43.7824C39.2068 43.7824 42.8906 40.5166 42.8906 37.296C42.8906 34.4258 40.3481 32.9793 35.8506 31.4199C35.8506 31.3182 35.8393 31.2278 35.828 31.1261C35.828 30.9792 35.8054 30.8323 35.7715 30.6741H40.4611C42.5855 30.6741 43.7155 29.578 43.7155 27.5213C43.7155 23.8488 40.4498 20.1649 37.2405 20.1649C34.359 20.1649 32.9125 22.7074 31.3531 27.2049C31.2514 27.2049 31.161 27.2049 31.0706 27.2162C30.9124 27.2275 30.7542 27.2501 30.6186 27.2727V22.5831C30.6186 20.47 29.5225 19.3287 27.4658 19.3287C23.782 19.3287 20.0981 22.5944 20.0981 25.8037C20.0981 28.674 22.6406 30.1317 27.1381 31.6911C27.1381 31.7928 27.1381 31.9058 27.1494 32.0075C27.1607 32.1431 27.1833 32.29 27.2059 32.4256H22.5276C20.4145 32.4256 19.2732 33.5331 19.2732 35.5897ZM28.9914 31.5555C28.9914 30.1769 30.1101 29.0469 31.4887 29.0469C32.8673 29.0469 33.9974 30.1769 33.9974 31.5555C33.9974 32.9341 32.8673 34.0529 31.4887 34.0529C30.1101 34.0529 28.9914 32.9341 28.9914 31.5555ZM29.9971 31.5555C29.9971 32.3804 30.6525 33.0358 31.4887 33.0358C32.3136 33.0358 32.969 32.3804 32.969 31.5555C32.969 30.7306 32.3136 30.0639 31.4887 30.0639C30.6525 30.0639 29.9971 30.7306 29.9971 31.5555Z" fill="#1C1C1E"/>
</svg>
