<svg width="100" height="100" viewBox="0 0 100 100" fill="none" xmlns="http://www.w3.org/2000/svg">
<g clip-path="url(#clip0_67_538)">
<path fill-rule="evenodd" clip-rule="evenodd" d="M11.0352 0.289203C5.79766 1.28705 1.84004 4.9728 0.440435 10.1562C0.133013 11.2951 0.0976613 12.5425 0.0976613 22.2706V33.1156L0.596685 34.0853C2.16563 37.1345 7.19844 37.0185 8.61465 33.9005C8.9504 33.1613 8.97618 32.416 8.98008 23.3005C8.98536 11.1882 9.06915 10.723 11.457 9.54741L12.4023 9.08198L22.9492 8.98432C34.6934 8.87553 34.127 8.9435 35.3145 7.50287C37.0732 5.36889 36.4398 1.80854 34.0857 0.596625L33.1166 0.0976013L22.7594 0.0632263C14.8211 0.0366638 12.083 0.0895935 11.0352 0.289203ZM66.6951 0.266742C63.7328 1.21557 62.667 5.05385 64.6856 7.50287C65.8731 8.9435 65.3066 8.87553 77.0508 8.98432L87.5977 9.08198L88.543 9.54741C90.9309 10.723 91.0147 11.1882 91.0199 23.3005C91.0238 32.416 91.0496 33.1613 91.3854 33.9005C92.8016 37.0185 97.8344 37.1345 99.4033 34.0853L99.9024 33.1156V22.2706C99.9024 10.0595 99.9305 10.3425 98.4041 7.22885C96.8506 4.0601 93.6756 1.51694 89.9414 0.450336C88.3822 0.00502318 68.0143 -0.155914 66.6951 0.266742ZM21.582 18.3425C20.2322 18.6806 19.3141 19.414 18.6264 20.7031C18.2834 21.3458 18.2617 22.0091 18.2617 31.8359C18.2617 46.6273 17.1039 45.381 30.9287 45.471C43.0748 45.5501 43.6891 45.4447 44.9111 43.0699L45.4102 42.1003V31.9388C45.4102 21.0195 45.4012 20.9121 44.3922 19.713C43.1404 18.2253 43.4699 18.2656 32.2266 18.2287C26.6943 18.2105 21.9043 18.2617 21.582 18.3425ZM57.9102 18.3425C56.4316 18.7128 55.3307 19.6835 54.8508 21.04C54.6459 21.6189 54.5898 23.9591 54.5898 31.9388V42.1005L55.0889 43.0699C56.3111 45.4447 56.9252 45.5501 69.0713 45.471C79.2188 45.4048 79.2291 45.4039 80.4363 44.2777C81.7774 43.0269 81.7383 43.3999 81.7383 31.8359C81.7383 20.4095 81.7813 20.8693 80.5924 19.5611C79.3867 18.2341 79.6666 18.2652 68.5547 18.2287C63.0225 18.2105 58.2324 18.2617 57.9102 18.3425ZM27.2787 27.2787C27.207 27.3501 27.1484 29.4156 27.1484 31.8685V36.3281H36.3281V27.1484H31.8686C29.4156 27.1484 27.3502 27.207 27.2787 27.2787ZM63.6719 31.7347V36.3281H72.8588L72.8063 31.7871L72.7539 27.246L68.2129 27.1937L63.6719 27.1412V31.7347ZM21.8561 54.69C20.2891 54.955 19.3838 55.6113 18.6264 57.0312C18.2834 57.674 18.2617 58.3372 18.2617 68.164C18.2617 79.724 18.2256 79.3789 19.5611 80.5923C20.8693 81.7812 20.4096 81.7382 31.8359 81.7382C43.5285 81.7382 43.1324 81.7839 44.3922 80.2869C45.4012 79.0878 45.4102 78.9804 45.4102 68.0611V57.8996L44.9111 56.93C44.2621 55.6687 43.2092 54.9332 41.6992 54.6861C40.3268 54.4617 23.1867 54.4648 21.8561 54.69ZM58.1172 54.7183C56.8254 54.9093 55.7092 55.7246 55.0889 56.93C54.3318 58.4005 54.3248 64.2214 55.0781 65.7126C56.7137 68.9505 61.4238 68.9671 63.1449 65.7412C63.6699 64.7572 63.7912 58.7189 63.3133 57.3681C62.5979 55.346 60.6357 54.3455 58.1172 54.7183ZM71.8561 54.6773C69.499 55.1091 68.2836 56.6081 68.2848 59.082C68.2858 61.08 69.0025 62.3033 70.7031 63.2089C71.5754 63.6734 77.7227 63.7511 78.96 63.3132C82.5949 62.0271 82.7523 56.4693 79.1965 54.9621C78.3043 54.5839 73.4039 54.3939 71.8561 54.6773ZM2.90723 63.9414C1.77364 64.3464 1.04239 64.9761 0.553911 65.9681L0.0976613 66.8945V77.7343C0.0976613 89.9398 0.0695361 89.6574 1.5959 92.771C2.72481 95.0736 4.88282 97.2287 7.22657 98.3943C10.3135 99.9292 10.0445 99.9023 22.2707 99.9023H33.1156L34.0854 99.4033C36.4398 98.1917 37.0736 94.6312 35.3145 92.497C34.127 91.0564 34.6934 91.1244 22.9492 91.0156L12.4023 90.9179L11.457 90.4525C9.06915 89.2769 8.98536 88.8117 8.98008 76.6994C8.97618 67.5839 8.9504 66.8386 8.61465 66.0994C7.72676 64.1445 5.10879 63.1546 2.90723 63.9414ZM27.1938 68.2128L27.2461 72.7539L31.7871 72.8062L36.3281 72.8587V63.6718H27.1412L27.1938 68.2128ZM93.7967 63.9206C92.7973 64.3017 91.7891 65.2101 91.3898 66.0892C91.0482 66.8415 91.0238 67.5396 91.0199 76.6994C91.0147 88.8117 90.9309 89.2769 88.543 90.4525L87.5977 90.9179L77.0508 91.0156C65.3066 91.1244 65.8731 91.0564 64.6856 92.497C62.9264 94.6312 63.5602 98.1917 65.9147 99.4033L66.8844 99.9023H77.7293C89.9404 99.9023 89.6574 99.9304 92.7711 98.404C95.0973 97.2636 97.2637 95.0972 98.4041 92.771C99.9305 89.6574 99.9024 89.9404 99.9024 77.7292V66.8843L99.4033 65.9146C98.482 64.1238 95.7818 63.1634 93.7967 63.9206ZM61.2033 73.4308C58.0076 75.2638 58.6447 80.5158 62.1877 81.5456C64.0357 82.083 78.3244 81.8937 79.3945 81.3177C82.6455 79.5681 82.5574 74.5351 79.2516 73.1539C78.6375 72.8972 77.2943 72.8517 70.3676 72.8533L62.207 72.8552L61.2033 73.4308Z" fill="black"/>
</g>
<defs>
<clipPath id="clip0_67_538">
<rect width="100" height="100" fill="white"/>
</clipPath>
</defs>
</svg>
