<svg width="413" height="412" viewBox="0 0 413 412" fill="none" xmlns="http://www.w3.org/2000/svg">
<g clip-path="url(#clip0_105_313)">
<path fill-rule="evenodd" clip-rule="evenodd" d="M173.423 47.923C171.815 49.531 170.5 51.588 170.5 52.494C170.5 53.633 171.58 52.997 173.993 50.439C181.77 42.192 193.206 49.933 188.03 59.941C185.328 65.166 176.079 65.558 174.15 60.529C171.41 53.389 179.869 48.433 185.75 53.733C186.763 54.645 187.5 54.84 187.5 54.194C187.5 53.58 186.515 52.16 185.311 51.039C179.012 45.17 168.65 53.558 172.617 61.316C176.558 69.022 185.7 68.315 190.015 59.971C195.331 49.69 181.615 39.731 173.423 47.923ZM168.668 55.716C168.369 63.219 174.324 71 180.364 71C187.073 71 194.618 62.573 194.364 55.364C194.271 52.733 194.094 52.298 193.808 54C191.912 65.301 183.729 71.869 176.42 67.957C173.477 66.382 169.686 59.744 169.236 55.378L168.836 51.5L168.668 55.716ZM178.25 55.08C176.112 56.326 175.96 60.307 177.987 61.989C181.652 65.031 188.523 59.142 185.525 55.53C184.076 53.784 180.82 53.583 178.25 55.08ZM180.5 59C179.287 59.784 179.431 59.972 181.25 59.985C182.488 59.993 183.5 59.55 183.5 59C183.5 57.747 182.439 57.747 180.5 59ZM104.5 61C104.5 62.1 104.05 63 103.5 63C100.349 63 103.205 64.936 106.734 65.193L110.968 65.5L110.984 71.235C111.002 77.693 112.713 79.063 113.543 73.283L114.086 69.5L114.632 74C114.933 76.475 115.138 78.567 115.089 78.65C115.04 78.732 111.4 79.124 107 79.521C102.6 79.918 99.361 79.865 99.803 79.402C100.245 78.939 101.37 78.511 102.303 78.451L106.702 78.171C110.894 77.906 110.476 68.67 106.25 68.184C104.035 67.929 103.5 68.269 103.5 69.934C103.5 71.398 104.155 72.011 105.75 72.039C107.603 72.071 107.406 72.336 104.635 73.539C100.757 75.223 100.185 75.319 100.898 74.164C101.183 73.705 101.023 72.017 100.543 70.414C100.064 68.811 99.633 68.063 99.586 68.75C99.539 69.438 98.825 70 98 70C96.255 70 96.139 70.921 97.45 74.368C98.125 76.145 98.053 76.993 97.2 77.305C94.941 78.13 98.028 81.483 101.351 81.813C103.276 82.005 104.5 82.685 104.5 83.563C104.5 84.354 105.175 85 106 85C106.825 85 107.5 84.325 107.5 83.5C107.5 82.439 108.597 81.991 111.25 81.968C116.779 81.921 118.163 80.389 117.918 74.591C117.748 70.591 117.274 69.441 115.355 68.377C113.505 67.351 113.375 67.063 114.75 67.035C116.603 66.998 116.881 66.157 115.893 63.582C115.11 61.541 113.5 61.534 113.5 63.571C113.5 64.981 113.343 64.986 111.971 63.614C111.13 62.773 109.753 62.349 108.911 62.672C107.903 63.059 107.191 62.533 106.824 61.13C106.119 58.437 104.5 58.346 104.5 61ZM267.898 60.892C260.236 62.856 254.649 67.454 248.475 76.88L246.949 79.209L240.743 74.926C233.225 69.739 221.043 68.153 214.425 71.5C202.874 77.343 194.891 86.691 191.366 98.5C189.93 103.311 188.131 106.751 185.613 109.5C177.165 118.724 174.535 126.418 176.47 136.251C180.503 156.754 196.455 166.199 216.25 159.804C222.405 157.815 222.44 157.859 218.396 162.465C216.312 164.84 214.424 166 212.646 166C208.933 166 201.249 173.113 201.622 176.205C201.774 177.467 201.382 179.44 200.751 180.588C199.739 182.429 200.16 183.218 204.301 187.24C210.432 193.194 227.706 206.995 229.031 206.998C229.599 206.999 232.669 204.366 235.855 201.147L241.647 195.293L236.462 191.568L231.276 187.843L234.075 184.921L236.874 182L254.437 181.904C294.455 181.684 304.276 180.88 311.721 177.213C336.984 164.772 340.523 124.892 317.422 112.98C314.059 111.245 313.767 110.697 312.551 103.818C311.84 99.793 310.637 95.285 309.879 93.8C307.33 88.808 307.318 88.812 325.75 89.167C345.324 89.545 347.711 90.288 352.665 97.546C357.396 104.479 357.544 107.707 357.5 203.199C357.454 302.297 357.379 295.468 358.47 291.861C359.817 287.404 359.785 114.298 358.435 106.547C357.207 99.496 353.718 93.7 348.272 89.664C345.324 87.48 341.546 87.139 319 87.028L307 86.969L304.5 81.79C297.473 67.235 280.642 57.624 267.898 60.892ZM98.5 65.5C98.5 66.325 99.175 67 100 67C100.825 67 101.5 66.325 101.5 65.5C101.5 64.675 100.825 64 100 64C99.175 64 98.5 64.675 98.5 65.5ZM47.077 90.94C45.469 92 43.818 93.468 43.407 94.202C42.109 96.52 41.993 253.198 43.287 255.608C46.02 260.699 48.937 261.5 64.75 261.5H79.5V265.568C79.5 270.911 76.772 280.171 74.732 281.75C73.777 282.49 70.122 283 65.778 283C56.942 283 38.104 287.435 35.621 290.1C34.357 291.457 32.114 291.977 26.56 292.202L19.179 292.5L17.677 296.629C16.265 300.51 16.301 300.961 18.269 304.129C19.42 305.983 21.99 310.313 23.98 313.75C27.983 320.666 28.376 320.899 31.043 317.952C32.792 316.02 32.806 315.661 31.283 311.553C29.798 307.545 29.799 307.016 31.294 304.851C34.105 300.782 35.129 300.029 36.28 301.18C37.781 302.681 69.079 302.256 75.267 300.65C86.253 297.801 92.118 292.531 97.491 280.681L100.52 274H110.943C120.712 274 121.408 274.134 122.044 276.139C122.417 277.315 124.473 280.985 126.611 284.294C128.75 287.603 130.5 291.521 130.5 293C130.5 296.892 133.557 299.245 138.08 298.837C140.431 298.625 141.969 298.962 142.239 299.75C142.516 300.56 141.65 301 139.774 301C135.749 301 133.689 302.904 133.317 306.968C132.998 310.461 135.783 313.005 140.5 313.527C141.325 313.619 143.224 314.279 144.72 314.994C149.27 317.168 152.079 313.501 149.288 309.032C148.621 307.964 148.458 306.733 148.925 306.295C149.392 305.858 149.975 306.063 150.22 306.75C150.466 307.438 151.352 308 152.19 308C153.169 308 153.497 307.434 153.107 306.418C152.773 305.548 152.5 304.454 152.5 303.986C152.5 303.518 151.713 302.884 150.75 302.578C147.216 301.455 143.5 297.004 143.5 293.895C143.5 292.232 142.539 288.636 141.364 285.905C138.38 278.969 139.304 279.037 145.968 286.243C149.49 290.043 153.048 293.809 156.642 297.541L161.53 302.581L159.916 307.541C158.698 311.279 158.212 317.67 157.942 333.5C157.745 345.05 157.565 355.512 157.542 356.75C157.517 358.065 156.877 359 156 359C154.917 359 154.5 360.111 154.5 363V367L173.75 366.985C184.338 366.976 193.609 366.583 194.353 366.112C197.264 364.267 193.896 361.355 187.293 360.006C178.805 358.273 170.585 353.289 172.12 350.807C178.185 340.993 179.137 302.166 173.5 294.5C171.671 292.012 166.383 281.783 166.742 281.425C166.961 281.205 169.015 282.404 171.306 284.089C179.766 290.31 182.757 284.331 175.191 276.323L170.75 271.623L173.84 266.562C175.539 263.778 177.545 260.868 178.298 260.095C180.515 257.819 181.5 254.229 181.5 248.42C181.5 243.792 182.066 242.117 185.25 237.324C188.844 231.914 189.01 231.289 189.24 222.305C189.513 211.635 189.012 210.924 182.995 213.438C180.938 214.297 179.068 215 178.838 215C178.609 215 178.551 212.188 178.71 208.75L179 202.5H170.497L170.332 176.5C169.954 117.257 170.317 120.134 162.788 116.803C158.288 114.813 156.571 114.724 126.026 114.908C90.608 115.122 87.56 115.479 83.088 119.949L80 123.035L79.706 151.518L79.412 180H75.912C73.692 180 72.472 180.457 72.575 181.25C72.894 183.71 72.482 185 71.378 185C70.602 185 70.64 184.536 71.5 183.5C72.297 182.539 72.359 182 71.672 182C69.886 182 68.881 184.823 69.322 188.601C69.756 192.319 73.938 195.988 77.75 195.996C80.256 196.002 80.042 200.046 77.5 200.71C76.4 200.998 75.5 201.679 75.5 202.224C75.5 202.768 74.76 202.93 73.855 202.583C71.243 201.58 68.5 204.832 68.5 208.932C68.5 213.745 70.494 216.348 75.428 217.976C79.327 219.263 79.5 219.498 79.5 223.5C79.5 226.987 79.086 227.868 77 228.818C74.349 230.026 73.803 231.451 75.573 232.545C76.245 232.96 75.87 233.753 74.573 234.661C73.433 235.46 72.5 236.747 72.5 237.52C72.5 238.614 70.328 238.991 62.75 239.214L53 239.5L52.69 243.25L52.379 247H63.985C76.53 247 80.5 248.672 80.5 253.955C80.5 257.687 50.677 256.33 47.854 252.469C46.743 250.95 46.5 236.82 46.5 173.784V96.95L49.065 95.975C50.476 95.439 57.451 95 64.565 95C79.582 95 81.5 95.892 81.5 102.878C81.5 108.695 80.068 109.343 67.039 109.427C57.546 109.488 55.384 109.795 53.695 111.324C49.215 115.377 50.307 121.394 55.414 120.801C57.496 120.559 58.059 119.894 58.303 117.39C58.631 114.024 62.9 113.027 77.063 113.007C89.024 112.99 91.932 97.502 81.201 90.96C76.458 88.067 51.457 88.053 47.077 90.94ZM327.25 107.654C324.027 108.215 323.925 108.731 326.444 111.75C328.803 114.578 334.886 114.883 336.42 112.25C337.348 110.656 337.442 110.65 337.47 112.18C337.495 113.589 338.632 113.864 344.5 113.883L351.5 113.905V110.952C351.5 108.27 351.193 108 348.151 108C346.309 108 341.471 107.814 337.401 107.587C333.33 107.361 328.762 107.391 327.25 107.654ZM13.5 115.5C13.5 116.564 12.41 117.004 9.74998 117.015C4.29398 117.038 3.82798 117.715 3.91898 125.5L3.99998 132.5H24L24.292 124.75L24.584 117H20.042C16.671 117 15.5 116.613 15.5 115.5C15.5 114.675 15.05 114 14.5 114C13.95 114 13.5 114.675 13.5 115.5ZM374.919 118.349C374.147 120.362 374.881 133.54 375.75 133.25C376.163 133.113 380.775 133 386 133H395.5V117H385.469C377.973 117 375.306 117.341 374.919 118.349ZM10.416 122.75C10.843 124.263 10.98 126.119 10.721 126.875C10.448 127.672 10.785 128.072 11.523 127.826C13.826 127.058 13.893 120 11.598 120C9.93998 120 9.75898 120.422 10.416 122.75ZM87.75 151.662C86.782 152.053 86.5 160.405 86.5 188.679V225.192L91.25 221.565C102.571 212.923 110.5 209.767 110.5 213.903C110.5 215.087 108.518 217.126 105.25 219.303C99.794 222.938 97.251 225.419 93.774 230.5C91.794 233.395 91.777 233.726 93.297 239.943C94.163 243.487 95.05 245.849 95.269 245.193C95.969 243.093 105.717 243.633 105.309 245.75C105.039 247.151 103.927 247.5 99.735 247.5C96.855 247.5 94.499 247.838 94.5 248.25C94.5 248.662 104.625 249.088 117 249.194C129.375 249.301 140.954 249.414 142.731 249.444C145.521 249.492 145.965 249.159 145.981 247C145.998 244.765 146.465 244.467 150.379 244.186C154.609 243.883 154.741 243.96 154.263 246.46C153.991 247.883 154.27 249.374 154.884 249.774C156.805 251.024 146.454 251.533 135.5 250.728C129.725 250.303 118.25 250.078 110 250.228L95 250.5L94.681 254.398C94.233 259.871 94.604 259.967 116.25 259.985L135.5 260L135.532 255.75C135.562 251.739 135.649 251.613 137.076 253.5C137.908 254.6 138.363 256.4 138.087 257.5C137.607 259.415 138.02 259.489 147.793 259.23C163.338 258.819 164.457 258.512 166.175 254.185C167.096 251.865 168.816 249.911 170.819 248.91C173.136 247.752 174.027 246.598 174.101 244.66C174.227 241.323 173.029 241.263 170.908 244.5C168.607 248.012 168.045 247.73 164.575 241.322L161.5 235.645V151L125.25 151.079C105.313 151.122 88.438 151.385 87.75 151.662ZM61.972 161.046C61.616 161.621 61.632 164.321 62.006 167.046L62.688 172L68.344 172.014C71.455 172.021 75.072 172.314 76.383 172.665C78.739 173.296 78.758 173.239 78.14 167.568C77.796 164.414 77.26 161.42 76.948 160.916C76.162 159.644 62.766 159.76 61.972 161.046ZM113.25 178.054C108.987 182.301 105.5 186.306 105.5 186.954C105.5 189.378 107.553 191.823 110.431 192.826C112.157 193.428 114.918 195.969 117.011 198.883C122.76 206.884 125.649 206.724 131.541 198.078C133.444 195.287 135.272 193.003 135.604 193.002C135.936 193.001 137.349 191.942 138.744 190.65C141.851 187.77 141.461 183.86 137.83 181.481C134.959 179.599 127.5 171.855 127.5 170.755C127.5 170.34 126.037 170.075 124.25 170.166C121.636 170.3 119.484 171.843 113.25 178.054ZM118.577 181.589C114.654 184.89 114.7 186.832 118.798 190.804C122.868 194.749 124.195 194.785 128.277 191.056C132.318 187.365 132.308 186.176 128.202 182.196C124.207 178.324 122.579 178.221 118.577 181.589ZM73.084 185.641C72.545 187.047 72.685 187.091 74.058 185.952C75.324 184.901 76.067 184.873 77.581 185.819C78.637 186.478 79.5 186.611 79.5 186.115C79.5 183.783 73.954 183.374 73.084 185.641ZM250.188 184.646C249.809 185.024 249.5 191.193 249.5 198.354V211.374L246.51 208.51C244.866 206.935 243.279 205.888 242.982 206.184C242.156 207.01 244.357 212.124 247.069 215.679C249.419 218.76 249.5 219.423 249.5 235.506V252.146L245.772 249.073C238.152 242.791 237.545 245.618 244.5 255L249.5 261.745V282H222.892L219.847 285.25C214.259 291.214 209.5 298.263 209.5 300.574C209.5 302.184 208.834 302.955 207.25 303.18C205.488 303.431 205 304.15 205 306.5V309.5H253.287C293.749 309.5 301.715 309.272 302.444 308.091C303.838 305.834 302.512 304 299.487 304C297.224 304 296.783 303.634 297.186 302.092C297.515 300.834 295.522 297.089 291.343 291.11L285 282.037L269.25 282.019L253.5 282V261.089L257.5 255.379C263.322 247.067 263.013 243.846 256.844 248.551L253.5 251.102V236.855C253.5 223.317 253.624 222.429 255.98 219.029C259.204 214.377 260.384 209 258.182 209C257.319 209 255.926 209.982 255.085 211.182C253.679 213.189 253.535 212.214 253.279 199.014C253.019 185.627 252.344 182.49 250.188 184.646ZM74.667 187.641C73.702 188.693 73.63 189.452 74.408 190.389C74.999 191.101 75.149 192.052 74.741 192.502C74.334 192.952 74.52 193.023 75.156 192.659C75.792 192.296 76.077 191.098 75.789 189.999C75.502 188.9 75.719 188 76.272 188C76.825 188 77.257 188.563 77.231 189.25C77.122 192.187 77.559 194 78.375 194C79.894 194 79.322 189.148 77.625 187.635C76.206 186.371 75.831 186.371 74.667 187.641ZM263.75 201.807C259.307 202.129 258.902 202.527 260.5 205C261.342 206.303 261.471 206.286 261.485 204.864C261.497 203.498 262.573 203.261 268 203.428C272.051 203.552 274.5 203.227 274.5 202.564C274.5 201.48 271.347 201.258 263.75 201.807ZM275.956 202.072C275.277 203.169 276.128 203.24 288.312 203.098C293.434 203.038 297.383 203.38 297.088 203.857C296.793 204.335 292.827 204.75 288.276 204.778C263.506 204.936 262.334 205.001 262.732 206.196C263.019 207.056 266.917 207.352 276.565 207.248C310.336 206.885 310.5 206.876 310.5 205.331C310.5 204.32 309.879 204.062 308.5 204.5C307.308 204.878 306.5 204.68 306.5 204.008C306.5 203.389 306.95 203.16 307.5 203.5C308.05 203.84 308.5 203.505 308.5 202.757C308.5 201.138 276.943 200.474 275.956 202.072ZM301.5 203.786C301.5 204.218 302.4 204.571 303.5 204.571C304.6 204.571 305.5 204.218 305.5 203.786C305.5 203.354 304.6 203 303.5 203C302.4 203 301.5 203.354 301.5 203.786ZM18.073 204.881C17.738 205.424 15.992 205.63 14.194 205.338C10.787 204.785 4.49998 208.894 4.49998 211.673C4.49998 212.348 3.71198 213.373 2.74998 213.95C1.10498 214.936 1.10198 215.078 2.70198 216.324C3.21245 216.711 3.5955 217.243 3.80201 217.849C4.00852 218.456 4.02905 219.111 3.86098 219.729C3.46998 221.224 3.88698 221.988 5.34698 222.451C6.59598 222.848 7.49598 224.134 7.68798 225.798C7.96598 228.206 8.43598 228.514 12 228.629C14.2 228.701 16.45 228.477 17 228.133C17.55 227.789 19.35 227.506 21 227.504C23.5 227.501 24.051 227.058 24.307 224.852C24.503 223.152 25.368 222.006 26.721 221.652C28.347 221.227 28.576 220.796 27.722 219.767C27.014 218.915 26.949 217.903 27.542 216.966C29.215 214.321 28.591 212.061 26.008 211.413C24.021 210.914 23.63 210.329 24.082 208.53C24.487 206.915 24.129 206.091 22.824 205.635C21.821 205.285 20.479 204.75 19.842 204.447C19.205 204.143 18.409 204.339 18.073 204.881ZM311.579 205.583C311.627 206.748 311.864 206.985 312.183 206.188C312.472 205.466 312.436 204.603 312.104 204.271C311.772 203.939 311.536 204.529 311.579 205.583ZM73.5 209.059C73.5 209.641 73.95 209.84 74.5 209.5C75.05 209.16 75.5 208.684 75.5 208.441C75.5 208.198 75.05 208 74.5 208C73.95 208 73.5 208.477 73.5 209.059ZM263.774 210.987C263.944 213.241 265.067 213.656 265.841 211.75C266.222 210.809 266.61 210.871 267.409 212C268.313 213.279 268.472 213.286 268.485 212.05C268.497 210.922 268.767 210.867 269.7 211.8C270.36 212.46 271.373 212.993 271.95 212.985C272.527 212.976 272.325 212.533 271.5 212C270.599 211.418 270.475 211.025 271.191 211.015C271.846 211.007 272.66 211.45 273 212C273.888 213.437 280.239 213.235 280.838 211.75C281.241 210.75 281.358 210.75 281.421 211.75C281.464 212.438 282.512 212.993 283.75 212.985C285.428 212.973 285.648 212.746 284.615 212.092C283.788 211.569 289.83 211.206 299.615 211.193C320.014 211.165 319.5 211.195 319.5 210.046C319.5 209.465 308.584 209.069 291.561 209.033C264.16 208.975 263.625 209.013 263.774 210.987ZM13.262 211.073C7.68298 214.324 9.19898 222 15.421 222C19.961 222 21.5 220.563 21.5 216.326C21.5 211.976 16.827 208.997 13.262 211.073ZM112.236 212.598C110.225 214.609 113.1 215.488 120.763 215.206C129.683 214.878 131.5 214.536 131.5 213.184C131.5 211.843 125.149 211.955 124.287 213.31C123.714 214.212 123.527 214.197 123.515 213.25C123.5 211.965 113.449 211.384 112.236 212.598ZM133.188 212.646C131.883 213.95 132.506 215 134.583 215C135.747 215 136.492 214.476 136.271 213.813C135.784 212.351 134.114 211.719 133.188 212.646ZM137.138 213.5C137.455 214.325 137.891 215 138.107 215C138.323 215 138.5 214.325 138.5 213.5C138.5 212.675 138.064 212 137.531 212C136.999 212 136.822 212.675 137.138 213.5ZM330 273.945C328.9 274.396 327.1 275.822 326 277.115C324.178 279.256 324.17 279.334 325.907 277.983C327.736 276.56 327.792 276.694 327.278 281.269C326.172 291.099 333.747 294.427 340.797 287.208C342.834 285.122 344.493 282.535 344.485 281.458C344.472 279.828 344.307 279.751 343.5 281C342.728 282.195 342.512 281.992 342.441 280C342.363 277.817 342.117 278.007 340.5 281.5C339.482 283.7 338.615 285 338.574 284.389C338.533 283.767 337.45 283.478 336.117 283.733C334.807 283.983 333.43 283.696 333.058 283.094C332.636 282.411 333.343 282 334.941 282C336.833 282 337.5 281.479 337.5 280C337.5 278.9 336.975 278 336.333 278C335.692 278 335.428 277.739 335.748 277.419C336.067 277.099 337.267 277.34 338.414 277.954C339.842 278.718 340.5 278.737 340.5 278.014C340.5 276.294 335.859 274.693 332.973 275.417C330.55 276.025 330.334 276.459 330.673 280.018C331.117 284.67 329.68 283.881 329.132 279.171C328.541 274.096 335.53 272.008 341.035 275.615C342.391 276.503 343.5 276.8 343.5 276.276C343.5 273.692 334.439 272.128 330 273.945ZM219 291.784C215.7 296.016 212.85 299.821 212.667 300.239C212.483 300.658 221.104 301 231.823 301C250.297 301 251.288 300.904 250.829 299.149C250.563 298.131 251.055 296.588 251.922 295.721C253.803 293.84 253.872 292.671 252.349 288.46C251.199 285.28 251.195 285.278 242.196 284.639C224.681 283.396 225.812 283.047 219 291.784ZM259.357 284.722L255.715 285.108L258.288 292.957L260.861 300.806L276.148 301.523C296.255 302.465 295.716 302.864 288.211 292.596L282 284.1L272.5 284.218C267.275 284.283 261.361 284.51 259.357 284.722ZM327.5 284.639C327.5 286.263 331.965 290 333.907 290C334.885 290 336.881 289.039 338.342 287.864C341.114 285.637 340.828 285.648 336.231 287.951C333.646 289.246 333.265 289.149 330.481 286.482C328.842 284.911 327.5 284.082 327.5 284.639ZM331.5 285.393C331.5 285.609 332.198 286.054 333.052 286.382C333.942 286.723 334.343 286.555 333.993 285.989C333.406 285.038 331.5 284.583 331.5 285.393ZM364.5 296C363.675 296.533 361.239 296.976 359.086 296.985C354.472 297.003 338.71 299.722 333 301.485C329.816 302.468 329.049 303.157 329.238 304.86C329.539 307.566 328.725 307.56 325.825 304.836C322.863 302.053 321.087 303.463 317.5 311.45C315.913 314.984 314.27 317.177 313 317.457C311.9 317.7 307.454 318.579 303.121 319.411C292.178 321.512 288.526 325.82 291.533 333.079C293.526 337.892 298.368 338.045 311.541 333.714L316.082 332.221L316.291 334.75C316.406 336.141 317.851 339.771 319.5 342.817C322.307 347.999 322.5 349.05 322.5 359.178V370L275.75 370.247C216.404 370.56 193.526 370.533 176 370.127C168.3 369.948 132.536 369.841 96.524 369.889C33.993 369.972 31.126 370.055 32.809 371.738C34.476 373.404 42.37 373.5 178.286 373.5H322L321.709 392.75L321.418 412H340.066C357.019 412 358.656 411.849 358.078 410.342C356.726 406.82 352.652 391.285 351.975 387.07C351.584 384.633 350.417 381.132 349.382 379.289C346.925 374.915 347.004 374.163 350 373.411C354.054 372.393 353.102 370 348.644 370H344.787L344.128 362.905C343.765 359.002 343.009 354.95 342.447 353.9C340.818 350.858 343.015 344.836 347.455 340.168C352.049 335.339 353.811 329.993 353.333 322.332L353 316.994L356.5 316.426C370.782 314.109 377.211 310.303 376.113 304.813C374.595 297.225 369.08 293.04 364.5 296Z" fill="#D8DADC" stroke="#D8DADC"/>
<path fill-rule="evenodd" clip-rule="evenodd" d="M179.5 45.569C183.957 47.317 186.888 47.988 185.946 47.046C185.391 46.491 183.377 45.8 181.469 45.509C179.561 45.218 178.675 45.245 179.5 45.569ZM173.905 48.25L172 50.5L174.5 48.511C175.875 47.417 177.188 46.404 177.417 46.261C177.646 46.117 177.378 46 176.822 46C176.265 46 174.953 47.013 173.905 48.25ZM188.737 51.24C189.431 52.722 190.165 53.455 190.366 52.869C190.567 52.283 189.999 51.07 189.103 50.174C187.597 48.668 187.569 48.749 188.737 51.24ZM176.007 50.989C175.657 51.555 176.058 51.723 176.948 51.382C178.68 50.717 178.997 50 177.559 50C177.041 50 176.343 50.445 176.007 50.989ZM181.583 50.365C181.813 50.565 183.125 51.265 184.5 51.92C186.857 53.042 186.889 53.022 185.059 51.555C183.466 50.279 180.211 49.164 181.583 50.365ZM179.25 55.067C178.199 55.687 177.5 57.303 177.5 59.113C177.5 61.893 177.744 62.102 180.649 61.813C184.485 61.432 186.492 58.798 184.888 56.25C183.54 54.11 181.571 53.697 179.25 55.067ZM180.75 57.768C179.512 57.972 178.5 58.572 178.5 59.101C178.5 60.858 181.632 61.297 183.174 59.755C184.923 58.005 183.984 57.235 180.75 57.768ZM187.994 60.343C185.395 64.376 181.472 65.793 177.214 64.236C174.304 63.171 174.183 63.199 175.941 64.53C179.901 67.528 187.118 65.329 189.343 60.446C191.058 56.681 190.386 56.63 187.994 60.343ZM103.868 62.456C102.775 64.814 102.877 64.907 106.868 65.198L111 65.5L111.021 70.687C111.045 76.615 112.442 79.234 112.611 73.667C112.931 63.115 112.897 63 109.5 63C107.5 63 106.5 62.5 106.5 61.5C106.5 59.224 105.138 59.719 103.868 62.456ZM267 62.343C258.507 65.148 252.675 70.133 249.352 77.426C247.872 80.673 247.955 80.684 242.067 76.497C223.635 63.392 198.612 74.937 191.928 99.63C190.53 104.792 189.165 107.297 185.938 110.617C174.162 122.734 173.914 141.022 185.36 153.342C193.576 162.185 211.282 162.833 224.39 154.769C227.592 152.8 227.265 153.373 221.5 159.842C215.941 166.08 214.627 167.062 212.42 166.627C209.08 165.968 201.334 173.649 202.158 176.801C202.442 177.886 202.185 179.077 201.587 179.446C199.095 180.987 200.79 184.117 206.863 189.187C231.751 209.969 228.25 208.705 236.344 199.833L240.602 195.166L235.801 191.921C233.16 190.136 230.834 188.545 230.631 188.386C230.428 188.226 230.905 187.511 231.69 186.798C232.476 186.084 234.847 183.925 236.96 182C239.072 180.075 240.521 178.998 240.179 179.607C239.179 181.39 251.716 181.975 268.687 180.936C277.109 180.421 286.475 180.262 289.5 180.583C302.673 181.982 316.784 175.991 324.545 165.706C336.848 149.401 333.188 122.016 317.643 114.069C314.181 112.299 313.887 111.743 311.724 102.853C304.512 73.215 285.692 56.168 267 62.343ZM113.5 62.796C113.5 64.633 114.686 67 115.607 67C117.038 67 116.637 64.359 115 63C114.092 62.246 113.5 62.166 113.5 62.796ZM99.043 64.931C98.726 65.443 98.925 66.144 99.484 66.49C100.043 66.835 100.5 66.416 100.5 65.559C100.5 63.802 99.9 63.544 99.043 64.931ZM105.25 68.752C102.56 69.359 103.122 72 105.941 72C107.284 72 108.629 71.601 108.93 71.113C109.719 69.836 107.307 68.288 105.25 68.752ZM99.5 69.969C99.5 70.501 98.825 70.678 98 70.362C97.175 70.045 96.5 70.298 96.5 70.924C96.5 71.551 97.125 72.303 97.889 72.596C98.656 72.89 99.065 73.947 98.802 74.952C98.54 75.954 98.815 77.077 99.413 77.446C100.135 77.892 100.5 76.587 100.5 73.559C100.5 71.052 100.275 69 100 69C99.725 69 99.5 69.436 99.5 69.969ZM114.969 73.64C115.477 77.03 115.306 78.508 114.332 79.125C112.3 80.413 100.072 80.172 98.717 78.817C98.066 78.166 97.279 77.887 96.969 78.198C95.814 79.352 99.87 82.162 102.081 81.74C103.671 81.436 104.491 81.857 104.83 83.153C105.46 85.564 107.5 85.544 107.5 83.127C107.5 81.61 108.452 81.163 112.522 80.772C118.345 80.212 119.26 79.621 117.529 77.535C116.725 76.567 116.51 74.758 116.932 72.511C117.47 69.643 117.287 69 115.932 69C114.525 69 114.379 69.705 114.969 73.64ZM106.887 74.25C107.246 75.393 106.907 76 105.91 76C105.069 76 104.66 75.55 105 75C105.34 74.45 104.969 74 104.176 74C103.382 74 102.498 74.9 102.21 76C101.753 77.748 102.18 78 105.594 78C109.879 78 110.297 77.36 107.918 74.441C106.568 72.784 106.417 72.756 106.887 74.25ZM329.5 88.937C344.652 89.525 346.274 89.965 350.628 94.664C354.075 98.384 355.606 101.421 357.101 107.5C358.127 111.674 358.344 111.984 358.415 109.376C358.598 102.663 354.47 94.905 348.29 90.345C345.256 88.106 344.428 88.008 330.056 88.187L315 88.373L329.5 88.937ZM45.806 92.413L43 94.826L42.5 173.163C41.945 260.113 41.638 255.731 48.534 259.288C51.465 260.8 54.123 261.031 65.751 260.788L79.503 260.5L79.501 265.201C79.497 280.374 76.652 283.999 64.75 284.003C48.399 284.007 34.154 289.213 32.01 295.968C31.102 298.83 29.885 298.496 28.334 294.959C26.379 290.502 20.981 291.02 18.25 295.928C16.021 299.933 16.209 300.535 23.192 311.75C28.073 319.587 28.192 319.677 31.012 317.615C32.852 316.269 32.855 316.114 31.103 312.228C29.377 308.4 29.375 308.066 31.057 304.522C32.996 300.436 35.032 299.132 36.767 300.867C37.481 301.581 42.171 301.997 49.45 301.992C79.638 301.973 88.778 298.009 96.701 281.5L100.061 274.5L110.792 274.216C121.41 273.935 121.534 273.958 122.467 276.412C122.985 277.777 124.792 280.801 126.481 283.133C128.17 285.464 130.236 289.723 131.071 292.596C132.687 298.156 133.904 299.208 137.654 298.287C143.114 296.947 143.986 292.613 140.416 284.544C137.701 278.406 138.383 278 143.082 282.958C146.755 286.834 149.407 288.371 147.899 285.75C147.481 285.024 147.561 284.849 148.09 285.333C148.957 286.127 149.084 286.504 149.375 289.128C149.444 289.749 152.421 293.079 155.991 296.528L162.482 302.799L161.053 306.219C158.622 312.036 156.62 346.234 158.572 348.587C159.738 349.991 157.329 360.24 155.938 359.798C155.422 359.634 154.86 361.188 154.69 363.25L154.379 367L173.19 366.985C192.609 366.969 194.949 366.571 194.336 363.386C194.061 361.956 192.544 361.255 187.951 360.433C179.807 358.976 171.226 354.212 171.859 351.5C172.116 350.4 173.299 345.675 174.489 341C177.288 329.999 178.308 310.973 176.456 304.303C175.722 301.661 173.15 295.548 170.739 290.718C165.485 280.193 165.599 278.934 171.391 283.522C176.399 287.489 178.102 287.829 178.988 285.038C179.775 282.558 178.594 280.395 174.082 276.054C172.112 274.158 170.5 272.255 170.5 271.823C170.5 271.097 175.243 263.631 179.179 258.162C180.272 256.642 180.975 253.35 181.185 248.758C181.465 242.675 181.987 240.974 184.942 236.522C189.304 229.95 189.891 227.479 189.022 219.361L188.316 212.768L185.158 213.345C183.421 213.663 181.029 214.206 179.841 214.554C178.256 215.018 177.556 214.696 177.207 213.343C176.886 212.096 176.694 212.39 176.616 214.25C176.495 217.109 176.143 217.313 173.284 216.178C170.927 215.243 173.161 210.628 176.181 210.193C178.717 209.827 180.149 205.487 178.421 203.404C177.056 201.76 174.138 201.588 171.505 202.997C169.703 203.962 169.642 202.698 169.62 163.897C169.596 118.843 169.846 120.422 162.172 116.938C156.168 114.212 95.611 114.102 88.603 116.804C79.786 120.205 80.043 118.884 79.686 162.572C79.398 197.806 79.231 201.003 77.686 201.032C76.216 201.06 76.248 201.252 77.941 202.532C79.774 203.918 79.691 204.008 76.441 204.152C74.549 204.236 72.362 204.35 71.582 204.407C70.802 204.463 69.98 205.182 69.756 206.004C69.395 207.326 69.471 207.326 70.409 206C71.801 204.031 71.784 205.887 70.372 209.937C69.427 212.649 69.518 213.442 70.938 214.836C71.87 215.751 72.55 216.05 72.448 215.5C72.031 213.245 72.584 212 74 212C74.825 212 75.5 211.52 75.5 210.933C75.5 210.295 74.633 210.14 73.349 210.548C71.605 211.101 71.321 210.909 71.849 209.534C72.207 208.6 72.5 207.648 72.5 207.418C72.5 207.188 73.202 207 74.059 207C74.916 207 75.34 206.55 75 206C74.258 204.799 75.503 204.715 77.284 205.845C77.992 206.294 78.28 207.409 77.927 208.33C77.542 209.332 77.778 210 78.515 210C79.431 210 79.394 210.425 78.372 211.663C77.302 212.959 77.275 213.418 78.25 213.746C78.938 213.977 79.5 214.606 79.5 215.142C79.5 215.679 79.097 215.869 78.605 215.565C78.112 215.26 77.452 215.684 77.136 216.506C76.788 217.413 77.139 218 78.031 218C80.628 218 80.059 228.621 77.425 229.309C76.021 229.676 75.455 230.508 75.675 231.879C75.859 233.025 75.155 234.524 74.055 235.331C71.743 237.028 73.127 243.627 76.504 247.004C78.977 249.477 81.591 254.576 80.793 255.373C80.449 255.718 73.672 256 65.733 256H51.3L47.9 252.6L44.5 249.2V98.113L46.723 96.557C48.498 95.313 52.011 95 64.197 95H79.449L81.063 98.121C83.093 102.047 82.243 107.366 79.251 109.462C76.318 111.516 78.113 113.383 81.415 111.711C88.478 108.135 89.208 99.508 82.974 93.274L79.7 90H64.156C49.166 90 48.511 90.086 45.806 92.413ZM324.5 108.971C324.5 109.537 325.175 110 326 110C326.825 110 327.5 110.675 327.5 111.5C327.5 112.325 328.063 113.034 328.75 113.077C329.438 113.119 330.9 113.329 332 113.543C333.1 113.758 334.563 113.187 335.25 112.275C336.409 110.739 336.591 110.738 337.75 112.26C339.809 114.965 351.716 113.512 351.301 110.607C351.015 108.602 350.358 108.486 337.75 108.221C329.153 108.04 324.5 108.303 324.5 108.971ZM53.674 112.314C50.121 116.096 50.711 120.203 54.75 119.813C57.663 119.533 57.969 119.206 57.7 116.67C57.471 114.514 57.888 113.711 59.45 113.303C60.577 113.008 61.5 112.144 61.5 111.383C61.5 109.094 56.095 109.737 53.674 112.314ZM9.25 117.742L4.5 118.11V132.072L14.139 131.786L23.778 131.5L24.121 124.75L24.464 118H20.564C18.419 118 16.064 117.859 15.332 117.687C14.599 117.516 11.863 117.54 9.25 117.742ZM378.823 117.808C375.703 118.11 375.635 118.228 374.965 124.479C374.591 127.978 374.584 131.327 374.951 131.921C375.677 133.096 387.289 133.392 392.416 132.367L395.582 131.734L395.291 124.617L395 117.5H388.5C384.925 117.5 380.571 117.639 378.823 117.808ZM387.5 123.441C387.5 125.948 387.95 128 388.5 128C389.05 128 389.5 126.227 389.5 124.059C389.5 121.891 389.05 119.84 388.5 119.5C387.889 119.122 387.5 120.656 387.5 123.441ZM9.893 121.582C10.227 122.452 10.5 124.252 10.5 125.582C10.5 127.065 11.08 128 12 128C13.048 128 13.5 126.944 13.5 124.5C13.5 120.784 15.788 119.688 18.3 122.2C19.233 123.133 19.5 123.022 19.5 121.7C19.5 120.322 18.533 120 14.393 120C10.147 120 9.388 120.267 9.893 121.582ZM89.654 141.552C89.845 142.532 90.605 143.536 91.346 143.782C92.206 144.069 92.566 143.588 92.346 142.448C92.155 141.468 91.395 140.464 90.654 140.218C89.794 139.931 89.434 140.412 89.654 141.552ZM154.5 141.573C154.5 142.505 155.18 143.015 156.167 142.823C158.676 142.337 159.02 140 156.583 140C155.355 140 154.5 140.646 154.5 141.573ZM86.285 188.25C86.128 208.738 86.085 225.66 86.189 225.856C86.293 226.051 88.993 224.202 92.189 221.747C98.514 216.889 105.525 213 107.96 213C111.037 213 109.386 215.865 104.503 218.998C93.785 225.876 90.842 231.543 92.919 241.308C93.76 245.263 94.347 250.975 94.224 254L94 259.5L126.773 259.764C163.175 260.057 164.39 259.873 167 253.684C167.792 251.807 169.607 249.952 171.422 249.166C173.998 248.05 174.5 247.276 174.5 244.416C174.5 240.223 174.061 240.18 170.801 244.054L168.232 247.107L165.366 242.089L162.5 237.071L162.493 200.785C162.489 180.828 162.199 161.463 161.848 157.75L161.211 151H86.57L86.285 188.25ZM63.01 162.016C63.356 162.575 64.17 162.734 64.819 162.37C65.615 161.923 65.593 162.145 64.75 163.053C64.063 163.794 63.5 165.822 63.5 167.561C63.5 170.627 63.657 170.74 68.75 171.352C77.87 172.447 77.5 172.653 77.5 166.5V161H69.941C65.075 161 62.606 161.362 63.01 162.016ZM65.75 164.639C62.017 166.215 64.687 168.09 70.25 167.8C74.561 167.575 76 167.125 76 166C76 164.473 68.502 163.477 65.75 164.639ZM114.25 177.398C109.438 181.933 106.5 185.486 106.5 186.769C106.5 189.911 107.555 192 109.142 192C111.684 192 115.369 195.083 118.217 199.592C122.407 206.223 126.115 205.83 130.862 198.252C132.326 195.915 135.087 192.99 136.999 191.752C142.359 188.28 141.713 186.057 132.84 177.44C128.627 173.348 124.464 170.021 123.59 170.047C122.715 170.073 118.513 173.381 114.25 177.398ZM121.969 179.222C114.376 183.256 113.535 187.068 119.151 191.998C123.476 195.795 123.591 195.784 128.535 191.082C132.619 187.196 132.639 187.142 130.945 184.556C128.153 180.295 124.28 177.994 121.969 179.222ZM249.974 188.287C249.635 190.095 249.522 196.166 249.724 201.778L250.091 211.982L247.491 209.491C242.508 204.718 242.461 208.351 247.417 215.163C250.028 218.751 250.087 219.171 250.332 235.913C250.469 245.311 250.285 253 249.923 253C249.56 253 247.726 251.65 245.847 250C238.455 243.51 239.807 249.861 247.677 258.602C249.202 260.295 249.689 262.898 250.182 271.981L250.794 283.258L238.127 282.527C227.69 281.925 225.059 282.059 223.184 283.288C219.819 285.492 209.238 298.766 209.94 299.902C210.546 300.883 209.647 301.93 206.088 304.389C204.892 305.215 204.413 306.331 204.81 307.365C205.9 310.206 302 309.351 302 306.5C302 305.048 301.225 304.411 299.171 304.176C297.15 303.944 296.505 303.429 296.912 302.368C297.479 300.89 289.857 288.763 285.446 284.123C283.195 281.756 283.125 281.749 267.843 282.46L252.5 283.173V261.89L256.524 255.965C258.737 252.706 260.81 249.356 261.131 248.52C262.121 245.939 258.943 246.79 255.869 249.929L253 252.858L252.691 238.679L252.383 224.5L255.985 217.724C259.972 210.222 259.817 207.362 255.64 211.368L253 213.9L253.341 202.843C253.697 191.309 253.046 185 251.5 185C251 185 250.313 186.479 249.974 188.287ZM9.355 207.483C8.06 208.848 6.438 209.973 5.75 209.983C5.063 209.992 4.5 210.863 4.5 211.917C4.5 212.971 3.938 214.023 3.25 214.254C2.268 214.585 2.285 215.021 3.333 216.289C4.066 217.177 4.383 218.792 4.039 219.877C3.554 221.404 3.931 221.923 5.706 222.176C7.496 222.43 7.961 223.085 7.825 225.157L7.649 227.813L15.325 227.491C19.546 227.314 23.346 227.131 23.769 227.084C24.192 227.038 24.256 225.875 23.911 224.5C23.385 222.404 23.637 222 25.471 222C27.366 222 27.573 221.611 27.021 219.095C26.655 217.429 26.834 215.911 27.441 215.536C29.217 214.439 28.631 213 26 212C24.289 211.349 23.5 210.29 23.5 208.641C23.5 206.037 19.999 204.341 18.018 205.985C17.373 206.521 16.339 206.51 15.466 205.958C13.158 204.498 11.884 204.816 9.355 207.483ZM11.057 212.223C7.657 217.077 10.279 223 15.829 223C19.094 223 22.505 219.796 22.485 216.75C22.445 210.88 14.266 207.64 11.057 212.223ZM74.084 215.641C73.557 217.014 73.704 217.076 74.977 216.019C76.712 214.579 76.893 214 75.607 214C75.116 214 74.431 214.739 74.084 215.641ZM170.059 219.905C169.758 220.392 170.248 221.073 171.149 221.419C173.304 222.246 173.618 221.794 171.952 220.26C171.212 219.578 170.36 219.418 170.059 219.905ZM99.25 244.728C93.992 245.278 94.56 247 100 247C103.333 247 104.5 246.611 104.5 245.5C104.5 244.675 104.162 244.076 103.75 244.168C103.338 244.261 101.313 244.513 99.25 244.728ZM146.02 245.807C145.194 247.96 145.266 248 150 248C153.183 248 154.5 247.592 154.5 246.605C154.5 244.672 146.736 243.941 146.02 245.807ZM147.764 250.718C149.284 250.947 151.534 250.941 152.764 250.704C153.994 250.467 152.75 250.279 150 250.286C147.25 250.294 146.244 250.488 147.764 250.718ZM135.5 256C135.5 257.65 135.95 259 136.5 259C137.05 259 137.5 257.65 137.5 256C137.5 254.35 137.05 253 136.5 253C135.95 253 135.5 254.35 135.5 256ZM332.25 276.662C332.938 276.94 334.063 276.94 334.75 276.662C335.438 276.385 334.875 276.158 333.5 276.158C332.125 276.158 331.563 276.385 332.25 276.662ZM333.5 280.451C333.5 281.496 334.139 282.023 335.167 281.823C337.075 281.453 338.254 279 336.524 279C335.877 279 335.707 279.541 336.133 280.25C336.643 281.099 336.342 281.06 335.192 280.128C333.728 278.94 333.5 278.984 333.5 280.451ZM327.5 280.723C327.5 281.303 328.427 282.841 329.559 284.139L331.619 286.5L329.862 283.5C327.55 279.552 327.5 279.493 327.5 280.723ZM218.082 292.199C214.532 296.708 211.851 300.758 212.123 301.199C212.694 302.123 248.196 302.276 253.626 301.378L257.252 300.779L255.966 297.139C255.258 295.138 253.926 291.363 253.007 288.75L251.335 284H224.536L218.082 292.199ZM255.304 284.53C255.013 284.821 256.159 288.871 257.852 293.53L260.929 302H277.714C287.812 302 294.5 301.616 294.5 301.037C294.5 300.507 291.73 296.457 288.345 292.037L282.191 284H269.012C261.764 284 255.595 284.238 255.304 284.53ZM333 285C333.34 285.55 334.041 286 334.559 286C335.077 286 335.5 285.55 335.5 285C335.5 284.45 334.798 284 333.941 284C333.084 284 332.66 284.45 333 285ZM331.5 287.393C331.5 287.609 332.198 288.054 333.052 288.382C333.942 288.723 334.343 288.555 333.993 287.989C333.406 287.038 331.5 286.583 331.5 287.393ZM357.732 290C357.732 291.925 357.938 292.712 358.189 291.75C358.441 290.788 358.441 289.212 358.189 288.25C357.938 287.288 357.732 288.075 357.732 290ZM364.5 295.976C363.675 296.522 361.2 296.982 359 296.997C356.8 297.012 352.525 297.688 349.5 298.5C346.475 299.312 342.425 300.016 340.5 300.064C334.835 300.207 330.126 302.348 329.482 305.075C328.787 308.022 325.588 308.84 323.883 306.509C322.633 304.799 320.5 305.204 320.5 307.151C320.5 307.72 319.6 309.329 318.5 310.727C317.4 312.126 316.5 314.1 316.5 315.116C316.5 317.116 316.15 317.24 304.288 319.451C294.566 321.264 292.932 322.16 291.512 326.464C290.046 330.905 291.811 334.96 295.781 336.27C300.557 337.845 316.275 332.49 316.798 329.109C317.02 327.674 317.21 329.061 317.22 332.19C317.235 336.429 317.88 338.979 319.749 342.19C321.97 346.003 322.302 347.883 322.63 358.5L323 370.5L177.75 370.404C97.862 370.352 32.5 370.625 32.5 371.012C32.5 372.472 83.895 373.117 201.807 373.137C295.645 373.153 323.388 373.43 322.629 374.344C322.071 375.017 321.603 383.423 321.549 393.765L321.453 412H357.727L357.181 409.25C355.826 402.415 349.29 379.495 347.968 376.938C346.046 373.222 346.057 373.185 349.173 372.816C352.776 372.39 353.493 370 350.018 370C348.561 370 346.611 370.401 345.684 370.891C344.209 371.672 343.97 371.075 343.759 366.08C343.626 362.943 342.926 358.38 342.202 355.938C340.413 349.903 341.774 344.576 346.07 340.805C350.603 336.824 352.772 330.703 352.344 323.095C351.968 316.403 351.708 316.698 359 315.538C372.05 313.462 376.794 310.237 375.464 304.342C373.854 297.203 368.646 293.229 364.5 295.976ZM252 297C251.163 298.354 252.292 300 254.059 300C255.681 300 255.747 299.808 254.893 297.582C254.203 295.783 252.912 295.524 252 297ZM136.505 301.894C132.124 303.112 132.965 307.875 137.959 310.13C139.082 310.636 141.549 312.178 143.442 313.555C146.822 316.014 146.919 316.025 148.781 314.164C150.642 312.302 150.639 312.197 148.611 308.384C144.598 300.839 143.127 300.051 136.505 301.894ZM345.372 308.75C344.136 310.326 344.169 310.367 345.706 309.164C346.645 308.429 347.952 308.161 348.611 308.568C349.369 309.037 349.547 308.885 349.095 308.155C348.095 306.535 346.968 306.715 345.372 308.75ZM332.579 310.25C332.622 311.488 332.885 311.938 333.162 311.25C333.969 309.251 335.322 309.79 336.928 312.75C338.616 315.862 339.002 314.45 337.525 310.565C336.254 307.222 332.464 306.981 332.579 310.25ZM321.5 311.455C321.5 312.156 326.508 317 327.233 317C327.585 317 326.581 315.65 325 314C322.168 311.044 321.5 310.558 321.5 311.455ZM315.658 321C315.658 322.375 315.885 322.938 316.162 322.25C316.44 321.563 316.44 320.438 316.162 319.75C315.885 319.063 315.658 319.625 315.658 321ZM329.764 374.718C331.284 374.947 333.534 374.941 334.764 374.704C335.994 374.467 334.75 374.279 332 374.286C329.25 374.294 328.244 374.488 329.764 374.718Z" fill="#FBFBFB" stroke="#FBFBFB"/>
<path fill-rule="evenodd" clip-rule="evenodd" d="M178.233 61.124C178.912 61.808 179.719 62.115 180.026 61.807C180.334 61.499 179.779 60.94 178.793 60.564C177.368 60.022 177.253 60.136 178.233 61.124ZM104.707 63.04C103.569 64.862 103.76 65 107.408 65C109.58 65 111.586 65.558 111.899 66.25C112.21 66.938 112.356 66.6 112.222 65.5C112.067 64.218 111.086 63.374 109.49 63.149C108.12 62.956 106.76 62.412 106.466 61.939C106.172 61.466 105.38 61.962 104.707 63.04ZM114.138 64.5C114.455 65.325 115.102 66 115.576 66C116.049 66 116.178 65.325 115.862 64.5C115.545 63.675 114.898 63 114.424 63C113.951 63 113.822 63.675 114.138 64.5ZM104.5 69.883C104.5 70.369 105.4 71.002 106.5 71.29C107.8 71.63 108.5 71.32 108.5 70.406C108.5 69.633 107.6 69 106.5 69C105.4 69 104.5 69.398 104.5 69.883ZM111.772 73C111.772 75.475 111.967 76.487 112.206 75.25C112.444 74.013 112.444 71.987 112.206 70.75C111.967 69.513 111.772 70.525 111.772 73ZM115.097 71.652C115.981 75.329 116.5 75.89 116.5 73.167C116.5 71.975 116.534 70.674 116.575 70.275C116.616 69.876 116.147 69.382 115.531 69.177C114.78 68.927 114.638 69.74 115.097 71.652ZM102.5 76.644C102.5 77.484 103.641 78 105.5 78C109.454 78 109.452 75.534 105.498 75.394C103.588 75.326 102.5 75.78 102.5 76.644ZM115.138 78.5C114.734 79.555 113.088 80 109.594 80C105.241 80 104.643 80.248 104.775 82C104.948 84.299 107.5 84.767 107.5 82.5C107.5 81.447 108.563 81 111.066 81C115.13 81 118.841 79.36 117.969 77.95C117.099 76.543 115.792 76.797 115.138 78.5ZM97.752 79C97.975 79.825 99.246 80.583 100.578 80.685C102.488 80.83 102.577 80.753 101 80.319C99.9 80.016 98.628 79.258 98.174 78.634C97.628 77.885 97.485 78.009 97.752 79ZM343.002 89.003C343.341 89.551 344.112 90 344.715 90C346.832 90 352.527 95.145 354.459 98.804C355.533 100.837 356.431 102.14 356.456 101.7C356.545 100.085 353.601 95.426 350.839 92.814C347.954 90.083 341.829 87.106 343.002 89.003ZM48.857 90.992C46.409 91.979 43.5 95.738 43.5 97.914C43.5 99.11 43.731 99.078 44.75 97.736C45.438 96.831 47.267 95.62 48.815 95.045C52.458 93.693 76.042 93.685 78.566 95.035C79.679 95.631 80.5 95.676 80.5 95.142C80.5 94.632 79.788 93.941 78.918 93.607C76.331 92.614 50.845 92.918 48.065 93.975C44.899 95.179 44.71 94.5 47.75 92.848C48.987 92.176 54.5 91.33 60 90.97L70 90.314L60.5 90.22C55.275 90.169 50.036 90.516 48.857 90.992ZM78.543 92.093C79.941 92.608 81.854 94.329 82.793 95.919C84.937 99.549 85.01 101.008 82.918 98.441C81.471 96.665 81.386 96.656 81.918 98.332C82.238 99.339 82.529 101.814 82.563 103.832C82.633 107.846 83.602 106.429 84.92 100.386C85.75 96.581 81.662 90.951 78.161 91.079C76.185 91.151 76.217 91.238 78.543 92.093ZM265.5 91.54C265.5 92.45 269.511 100 269.995 100C270.581 100 273.51 94.349 273.468 93.3C273.451 92.86 272.758 93.398 271.929 94.495C270.362 96.569 268.554 95.38 268.515 92.25C268.507 91.563 267.825 91 267 91C266.175 91 265.5 91.243 265.5 91.54ZM276.352 102.5C274.111 106.075 271.877 109 271.388 109C270.9 109 270.5 109.588 270.5 110.307C270.5 111.795 280.85 102.084 282.45 99.094C285.864 92.714 280.668 95.617 276.352 102.5ZM310.658 103C310.658 104.375 310.885 104.938 311.162 104.25C311.44 103.563 311.44 102.438 311.162 101.75C310.885 101.063 310.658 101.625 310.658 103ZM257.5 106.112C257.5 107.843 260.514 113 261.526 113C262.062 113 262.502 113.563 262.505 114.25C262.508 114.938 263.652 116.85 265.047 118.5L267.585 121.5L265.534 117.274C264.407 114.95 263.595 112.7 263.73 112.274C264.326 110.396 261.29 105.41 259.466 105.272C258.385 105.191 257.5 105.569 257.5 106.112ZM311.695 108.5C311.715 110.15 311.939 110.704 312.193 109.731C312.447 108.758 312.43 107.408 312.156 106.731C311.882 106.054 311.675 106.85 311.695 108.5ZM326.645 110.483C328.224 112.147 330.098 112.971 332.333 112.983C336.197 113.003 336.259 110.948 332.426 109.877C330.806 109.425 331.828 109.192 335.5 109.179C338.525 109.167 340.438 109.385 339.75 109.662C336.19 111.099 338.77 112.84 344.5 112.867C350.207 112.894 350.5 112.776 350.5 110.448V108H324.29L326.645 110.483ZM53.535 112.934C52.229 115.375 52.216 116.293 53.5 115.5C54.05 115.16 54.5 115.621 54.5 116.524C54.5 117.428 55.021 117.993 55.658 117.781C57.139 117.287 57.835 113 56.435 113C55.856 113 55.66 112.55 56 112C56.34 111.45 56.157 111 55.594 111C55.031 111 54.105 111.87 53.535 112.934ZM270.732 116C270.732 117.925 270.938 118.713 271.189 117.75C271.441 116.787 271.441 115.213 271.189 114.25C270.938 113.287 270.732 114.075 270.732 116ZM93.5 115.644C79.405 120.209 80.46 115.453 79.763 177.552C79.212 226.771 79.107 228.99 77.302 229.563C76.047 229.961 75.605 230.756 75.981 231.939C76.293 232.924 75.866 234.282 75.023 234.981C72.018 237.474 73.239 242.249 78.608 249L81.391 252.5L80.449 263.192C79.931 269.072 78.706 276.047 77.726 278.692L75.945 283.5L65.473 284.068C55.354 284.617 39.37 288.034 36.75 290.208C35.285 291.423 35.108 297.832 36.479 300C37.752 302.011 68.471 301.616 76 299.491C86.543 296.516 92.362 291 97.059 279.528L99.117 274.5L108.442 273.675C119.675 272.681 121.955 273.148 123.432 276.744C124.055 278.26 126.125 281.955 128.032 284.956C129.94 287.956 131.5 291.579 131.5 293.006C131.5 297.93 137.434 299.94 140.845 296.171C143.128 293.648 142.926 291.173 139.897 284.557C136.54 277.222 137.421 276.561 143.221 282.062C145.794 284.503 147.304 285.712 146.577 284.75C145.85 283.788 145.707 283 146.259 283C147.63 283 152.857 289.976 152.074 290.759C151.729 291.105 153.922 293.89 156.949 296.948L162.452 302.509L160.906 307.505C159.825 310.997 159.246 318.066 158.983 331C158.762 341.835 158.944 348.05 159.421 346L160.237 342.5L160.368 345.623C160.495 348.634 160.687 348.764 165.75 349.274C168.637 349.565 171.358 349.467 171.797 349.055C173.824 347.151 176.474 329.004 176.478 317L176.482 304.5L170.991 292.592C164.137 277.729 164.137 277.546 171 283C179.324 289.615 181.87 283.724 174.018 276.017C170.128 272.2 169.716 271.412 170.901 270.059C171.652 269.202 173.187 266.67 174.31 264.433C175.434 262.196 177.062 259.779 177.927 259.061C178.792 258.343 179.5 257.103 179.5 256.306C179.5 255.093 179.244 255.113 177.929 256.429C175.821 258.536 175.06 258.424 171.961 255.551C169.129 252.926 169.502 250.506 172.614 251.32C173.653 251.591 174.282 251.456 174.012 251.02C173.743 250.584 174.192 249.671 175.011 248.991C176.661 247.621 177.037 242.45 175.554 241.533C174.978 241.177 175.115 239.489 175.904 237.224C176.617 235.176 177.039 233.037 176.841 232.471C176.643 231.905 178.517 230.841 181.005 230.107C183.493 229.372 186.001 228.035 186.578 227.135C187.404 225.847 187.503 226.084 187.044 228.25C186.295 231.789 188.066 231.864 188.953 228.331C189.614 225.697 188.681 213 187.826 213C185.113 213 178.5 215.541 178.5 216.584C178.5 219.095 174.927 220.129 173.126 218.139C169.951 214.631 171.7 210 176.2 210C178.162 210 178.5 209.486 178.5 206.5C178.5 203.207 178.305 203 175.2 203C173.385 203 171.36 203.54 170.7 204.2C169.767 205.133 169.5 196.477 169.5 165.247C169.5 119.986 169.698 121.274 162.149 117.512L157.107 115L126.054 115.079C108.974 115.122 94.325 115.376 93.5 115.644ZM42.81 121.5C42.815 124.8 43.002 126.029 43.225 124.232C43.447 122.435 43.443 119.735 43.215 118.232C42.986 116.729 42.804 118.2 42.81 121.5ZM110.25 117.748C118.637 117.915 132.362 117.915 140.75 117.748C149.137 117.581 142.275 117.444 125.5 117.444C108.725 117.444 101.862 117.581 110.25 117.748ZM4.50002 124.329V130.738L8.25002 131.358C10.313 131.699 14.588 131.983 17.75 131.989L23.5 132L23.307 125.25L23.115 118.5L22.76 124.75L22.405 131L18.202 130.864C15.803 130.786 14.988 130.539 16.304 130.287C19.518 129.673 19.235 121.5 16 121.5C14.411 121.5 13.936 122.27 13.69 125.25C13.255 130.497 9.50002 130.795 9.50002 125.582C9.50002 123.702 9.22702 121.452 8.89302 120.582C8.40102 119.301 9.05202 119 12.311 119C18.662 119 19.5 119.654 19.5 124.607C19.5 127.023 19.974 129 20.552 129C21.193 129 21.486 126.949 21.302 123.75L21 118.5L12.75 118.21L4.50002 117.919V124.329ZM375.5 125.036V132.072L385.25 131.786L395 131.5L395.296 124.75L395.591 118H391.168C385.702 118 384.687 119.208 385.082 125.25C385.352 129.396 385.144 130 383.446 130C381.777 130 381.5 129.287 381.5 125C381.5 121.73 381.068 119.959 380.25 119.882C379.563 119.817 380.35 119.42 382 119C384.678 118.319 384.49 118.224 380.25 118.118L375.5 118V125.036ZM386.5 124.5C386.5 129.833 386.583 130 389.25 130C391.843 130 392 129.742 392 125.5C392 122.567 391.565 121 390.75 121C390.063 121 389.5 120.55 389.5 120C389.5 119.45 388.825 119 388 119C386.848 119 386.5 120.278 386.5 124.5ZM272.5 123.117C272.5 123.757 271.473 124.037 270.093 123.773C267.843 123.343 267.758 123.483 268.795 125.906C270.354 129.549 270.274 129.515 272.494 127.506C274.581 125.617 275.242 122 273.5 122C272.95 122 272.5 122.502 272.5 123.117ZM230.394 150.75C218.167 164.068 215.437 166.548 212.718 166.813C210.792 167.001 209.087 167.903 208.466 169.063C207.896 170.128 206.786 171 206 171C204.132 171 202.337 174.412 203.125 176.465C203.468 177.359 202.968 178.93 202 180C201.042 181.059 200.494 182.541 200.783 183.294C201.216 184.423 221.238 201.313 227.42 205.764C228.961 206.874 229.815 206.293 234.406 201.014C237.283 197.706 239.257 195 238.792 195C238.326 195 236.403 193.591 234.517 191.868L231.087 188.736L229.544 191.064C226.065 196.309 224.57 197.683 224.533 195.666C224.501 193.878 246.971 170 248.686 170C249.157 170 250.055 171.125 250.682 172.5C251.945 175.272 253.5 175.824 253.5 173.5C253.5 172.675 253.158 172 252.741 172C252.323 172 251.437 171.129 250.773 170.065C249.599 168.185 249.648 168.178 252.498 169.814C255.277 171.409 255.525 171.4 257.216 169.641C258.934 167.854 258.922 167.809 256.891 168.415C255.57 168.81 254.305 168.47 253.503 167.504C252.094 165.806 251.672 166.525 259.31 157.609C264.405 151.662 264.495 150.06 260.002 145.296C258.078 143.256 256.248 140.78 255.935 139.794C255.304 137.806 252.5 137.311 252.5 139.187C252.5 139.84 251.238 139.165 249.695 137.687C248.153 136.209 246.432 135 245.872 135C245.312 135 238.347 142.088 230.394 150.75ZM89.5 142C89.5 143.111 90.167 144 91 144C91.833 144 92.5 143.111 92.5 142C92.5 140.889 91.833 140 91 140C90.167 140 89.5 140.889 89.5 142ZM154.5 142C154.5 144.267 155.537 144.563 157.3 142.8C159.063 141.037 158.767 140 156.5 140C155.167 140 154.5 140.667 154.5 142ZM277.723 142.308C275.92 143.513 273.584 145.93 272.531 147.677L270.618 150.855L273.533 149.839C277.704 148.385 284.903 139.815 281.75 140.058C281.337 140.089 279.525 141.102 277.723 142.308ZM90.25 150.805L85.5 151.11V188.496C85.5 212.341 85.138 226.106 84.5 226.5C83.95 226.84 83.5 227.53 83.5 228.033C83.5 229.433 89.406 232.176 90.699 231.377C91.445 230.916 91.626 231.229 91.223 232.279C90.884 233.162 91.078 235.374 91.653 237.193C92.229 239.012 92.993 244.775 93.35 250L94 259.5L127 259.766C163.219 260.057 164.369 259.903 166.976 254.41C167.865 252.536 169.921 250.316 171.546 249.476C173.958 248.229 174.5 247.311 174.5 244.474C174.5 240.373 173.355 240.046 171.092 243.5C168.901 246.844 168.417 246.691 165.5 241.742L163 237.5L162.5 194.022L162 150.543L128.5 150.522C110.075 150.51 92.862 150.637 90.25 150.805ZM265.573 154.635C264.433 156.084 263.514 157.772 263.53 158.385C263.547 158.998 264.06 158.6 264.67 157.5C265.281 156.4 266.462 154.713 267.295 153.75C268.128 152.787 268.548 152 268.228 152C267.907 152 266.712 153.186 265.573 154.635ZM267.75 164.709C264.863 165.56 262.5 166.671 262.5 167.178C262.5 168.928 270.621 167.323 272.802 165.142C275.286 162.659 274.836 162.62 267.75 164.709ZM114.659 177.881C105.999 185.963 104.592 189.123 108.75 191.148C109.713 191.617 111.287 192.375 112.25 192.834C113.213 193.293 115.767 196.015 117.927 198.883C123.044 205.678 125.5 205.589 130.367 198.432C132.263 195.645 135.318 192.379 137.157 191.173C140.906 188.715 141.697 184.711 138.746 183.132C137.782 182.616 134.301 179.45 131.012 176.097C127.723 172.743 124.575 170.022 124.016 170.048C123.457 170.075 119.246 173.599 114.659 177.881ZM119.814 179.95C113.586 183.748 113.465 186.776 119.32 192.347C122.828 195.685 124.676 195.412 129.321 190.871C133.362 186.92 133.313 186.2 128.708 181.703C124.319 177.417 124.054 177.365 119.814 179.95ZM10.75 206.36C9.51202 206.973 8.50002 208.043 8.50002 208.737C8.50002 209.432 7.82502 210 7.00002 210C6.17502 210 5.50002 210.723 5.50002 211.607C5.50002 212.566 6.05902 212.999 6.88702 212.682C7.86002 212.308 8.12302 212.724 7.77002 214.075C7.20802 216.224 5.87502 216.624 5.27402 214.823C5.04102 214.122 4.34802 213.976 3.56302 214.461C2.52002 215.106 2.60202 215.478 3.95602 216.235C5.15302 216.905 5.48602 217.918 5.06302 219.604C4.73102 220.929 4.80502 221.957 5.22902 221.889C7.66302 221.493 8.50002 222.311 8.50002 225.083C8.50002 227.128 8.92102 228.012 9.75002 227.708C10.438 227.456 10.888 226.744 10.75 226.125C10.613 225.506 11.4 225 12.5 225C13.6 225 14.5 225.362 14.5 225.804C14.5 226.247 16.412 226.563 18.75 226.506C22.328 226.42 23.051 226.055 23.32 224.202C23.522 222.803 24.344 222 25.57 222C27.554 222 28.185 220.541 26.619 219.574C26.135 219.274 25.52 217.887 25.253 216.49C24.839 214.32 25.058 214.042 26.759 214.582C29.666 215.505 27.927 213.113 24.836 211.938C22.963 211.225 22.519 210.515 23 208.999C23.44 207.613 23.18 207 22.151 207C21.334 207 20.477 206.438 20.246 205.75C19.92 204.782 19.441 204.818 18.12 205.908C16.829 206.974 16.134 207.034 15.258 206.158C13.938 204.838 13.811 204.844 10.75 206.36ZM245.855 210.25C247.366 212.313 248.328 214 247.994 214C247.66 214 248.096 215.012 248.963 216.25C249.829 217.488 250.98 218.5 251.519 218.5C252.059 218.5 252.455 218.95 252.4 219.5C252.345 220.05 251.952 220.407 251.528 220.293C250.795 220.096 251.358 229.036 252.133 229.917C252.335 230.146 252.5 228.449 252.5 226.145C252.5 223.424 253.342 220.651 254.903 218.229C257.786 213.754 259.028 210 257.624 210C257.068 210 255.9 211.012 255.029 212.25C253.683 214.16 253.299 214.273 252.487 213C251.672 211.721 251.528 211.714 251.515 212.953C251.506 213.834 249.85 212.851 247.304 210.453L243.109 206.5L245.855 210.25ZM13.488 210.151C5.20002 212.978 8.75902 225.098 17.372 223.376C20.965 222.657 22.5 220.515 22.5 216.221C22.5 211.621 18.022 208.605 13.488 210.151ZM168.635 222.057C166.864 226.058 167.36 226.338 171 223.397C173.505 221.372 173.753 220.812 172.5 220.002C170.32 218.59 170.123 218.695 168.635 222.057ZM165.959 228.067C165.596 228.653 165.514 229.348 165.776 229.61C166.038 229.872 166.519 229.392 166.845 228.543C167.521 226.781 166.945 226.471 165.959 228.067ZM180 241.765C179.409 242.2 179.238 244.951 179.582 248.5C180.289 255.793 180.605 255.476 180.83 247.25L181 241.015C181 241.024 180.55 241.361 180 241.765ZM146.5 246.5C146.5 247.166 147.876 247.438 150 247.19C151.925 246.965 153.5 246.655 153.5 246.5C153.5 246.345 151.925 246.035 150 245.81C147.876 245.562 146.5 245.834 146.5 246.5ZM254.94 251.495C252.192 254.409 251.569 254.699 251.188 253.245C250.755 251.59 250.726 251.59 250.616 253.25C250.552 254.213 250.162 255 249.75 255.001C249.338 255.001 248.935 256.126 248.856 257.501C248.767 259.04 249.247 260 250.106 260C250.873 260 251.536 260.788 251.579 261.75C251.642 263.143 251.774 263.194 252.227 262C252.54 261.175 254.153 258.475 255.811 256L258.826 251.5L255.985 254L253.145 256.5L255.377 253.268C256.605 251.491 258.092 250.141 258.68 250.268C259.269 250.396 259.956 249.938 260.208 249.25C261.103 246.809 258.188 248.051 254.94 251.495ZM42.504 250.667C42.5 252.797 50.397 260.436 51.481 259.352C51.765 259.069 50.707 257.898 49.131 256.75C47.555 255.601 45.42 253.276 44.386 251.581C42.739 248.88 42.507 248.767 42.504 250.667ZM243.004 249.994C242.502 250.805 247.021 258 248.032 258C249.074 258 247.731 251.574 246.611 251.202C245.65 250.883 245.478 251.166 246.053 252.12C246.756 253.288 246.626 253.291 245.203 252.137C244.278 251.387 243.769 250.374 244.07 249.887C244.371 249.399 244.393 249 244.118 249C243.843 249 243.342 249.447 243.004 249.994ZM66.5 256.706C55.837 257.033 52.5 257.585 52.5 259.019C52.5 260.851 78.184 260.267 78.893 258.418C79.769 256.135 79.688 255.978 77.75 256.208C76.787 256.322 71.725 256.546 66.5 256.706ZM136 257C135.66 257.55 135.859 258 136.441 258C137.023 258 137.5 257.55 137.5 257C137.5 256.45 137.302 256 137.059 256C136.816 256 136.34 256.45 136 257ZM251.772 269C251.772 271.475 251.967 272.488 252.206 271.25C252.444 270.012 252.444 267.988 252.206 266.75C251.967 265.512 251.772 266.525 251.772 269ZM216.754 291.028C213.59 294.893 210.772 299.281 210.494 300.778C210.147 302.64 209.278 303.601 207.744 303.82C206.122 304.051 205.5 304.813 205.5 306.57V309H252.066C297.227 309 303.613 308.61 301.969 305.95C301.646 305.427 300.284 305 298.941 305C296.951 305 296.495 304.492 296.473 302.25C296.458 300.682 295.169 297.995 293.474 296L290.502 292.5L292.749 296.702C294.181 299.38 294.634 301.194 293.998 301.702C292.381 302.995 211.5 302.121 211.5 300.81C211.5 300.203 212.973 297.86 214.774 295.603C220.237 288.757 223.632 284 223.055 284C222.755 284 219.919 287.163 216.754 291.028ZM18.501 295.998L16.461 299.996L22.084 309.248C25.176 314.337 27.882 318.685 28.097 318.911C28.312 319.136 29.374 318.519 30.457 317.539C32.261 315.907 32.303 315.52 30.963 312.928C30.158 311.372 29.493 309.289 29.485 308.3C29.477 307.31 28.821 304.7 28.029 302.5C27.236 300.3 26.568 297.038 26.544 295.25C26.473 290.034 21.298 290.516 18.501 295.998ZM367 295.782C365.9 296.009 364.572 296.6 364.05 297.097C363.528 297.594 361.123 298 358.707 298C354.947 298 337.507 301.032 332.313 302.589C331.386 302.867 330.486 304.086 330.313 305.297C330.094 306.841 329.199 307.593 327.323 307.809C322.905 308.32 321.786 310.611 324.528 313.529C328.076 317.306 330.223 316.74 331.72 311.633C333.19 306.618 336.845 306.542 338.089 311.5C338.892 314.696 340.394 314.308 343 310.231C346.318 305.04 350.5 305.258 350.5 310.622C350.5 312.189 351.077 313 352.191 313C353.673 313 353.642 313.194 351.941 314.569C349.104 316.861 359.433 315.703 368.32 312.733C376.165 310.111 377.097 307.93 373.524 300.55C371.277 295.908 370.201 295.121 367 295.782ZM20.167 296.667C19.8 297.033 19.514 298.046 19.53 298.917C19.555 300.217 19.751 300.174 20.622 298.675C21.699 296.823 21.387 295.447 20.167 296.667ZM134.553 303.436C133.221 305.042 134.706 309 136.641 309C137.23 309 139.417 310.35 141.5 312C148.778 317.764 152.263 314.895 147.461 307.091C144.48 302.247 144.12 302 140.037 302C137.527 302 135.25 302.596 134.553 303.436ZM353.75 303.119C351.962 303.635 350.5 304.217 350.5 304.412C350.5 304.608 351.962 304.624 353.75 304.448C355.538 304.272 357.814 304.099 358.809 304.064C359.804 304.029 360.34 303.55 360 303C359.274 301.826 358.153 301.847 353.75 303.119ZM310 318.491C307.25 319.212 302.975 320.092 300.5 320.447C294.509 321.307 292.437 323.054 291.803 327.778C290.633 336.503 294.736 338.242 307.296 334.345L316.027 331.636L316.014 324.323C316.006 320.301 315.775 317.048 315.5 317.096C315.225 317.143 312.75 317.771 310 318.491ZM338.329 323C338.119 325.2 338.297 327 338.724 327C339.151 327 339.5 325.2 339.5 323C339.5 320.8 339.322 319 339.105 319C338.888 319 338.538 320.8 338.329 323ZM328.658 322C328.658 323.375 328.885 323.938 329.162 323.25C329.44 322.563 329.44 321.438 329.162 320.75C328.885 320.063 328.658 320.625 328.658 322ZM346.752 323.5C346.763 325.7 346.968 326.482 347.207 325.238C347.446 323.994 347.437 322.194 347.187 321.238C346.937 320.282 346.741 321.3 346.752 323.5ZM169.5 357C168.304 359.889 168.021 360 161.898 360C155.9 360 155.501 360.146 154.892 362.573C154.537 363.988 154.714 365.614 155.285 366.185C156.502 367.402 192.888 366.945 194.136 365.697C195.906 363.927 192.578 361.589 186.535 360.357C183.047 359.645 178.472 357.924 176.368 356.532C171.515 353.32 171.01 353.354 169.5 357ZM32.5 370.803C32.5 372.772 321.779 373.975 322.993 372.012C323.413 371.332 287.928 371 214.809 370.999C154.964 370.998 89.463 370.7 69.25 370.336C42.254 369.851 32.5 369.975 32.5 370.803ZM346.75 370.696C345.512 370.94 344.5 371.54 344.5 372.029C344.5 373.724 336.92 375.18 329.864 374.841L322.778 374.5L322.143 387C321.794 393.875 321.506 402.313 321.504 405.75L321.5 412H339.5C350.18 412 357.5 411.614 357.5 411.052C357.5 410.53 356.404 406.593 355.064 402.302C353.725 398.011 351.905 391.575 351.02 388C350.136 384.425 348.757 379.803 347.956 377.73C346.1 372.924 346.031 373.187 349.25 372.816C350.762 372.642 351.911 372.05 351.803 371.5C351.573 370.336 349.915 370.072 346.75 370.696Z" fill="#3A7AA0" stroke="#3A7AA0"/>
<path fill-rule="evenodd" clip-rule="evenodd" d="M104.5 64.025C104.5 64.561 106.15 65 108.167 65C112.452 65 112.307 64.536 107.75 63.669C105.883 63.313 104.5 63.465 104.5 64.025ZM106 70C106.34 70.55 107.041 71 107.559 71C108.077 71 108.5 70.55 108.5 70C108.5 69.45 107.798 69 106.941 69C106.084 69 105.66 69.45 106 70ZM115.579 71.583C115.627 72.748 115.864 72.985 116.183 72.188C116.472 71.466 116.436 70.603 116.104 70.271C115.772 69.939 115.536 70.529 115.579 71.583ZM102.5 77.059C102.5 77.641 102.95 77.84 103.5 77.5C104.05 77.16 104.5 76.684 104.5 76.441C104.5 76.198 104.05 76 103.5 76C102.95 76 102.5 76.477 102.5 77.059ZM115.5 79.059C115.5 79.641 115.95 79.84 116.5 79.5C117.05 79.16 117.5 78.684 117.5 78.441C117.5 78.198 117.05 78 116.5 78C115.95 78 115.5 78.477 115.5 79.059ZM105.579 82.583C105.627 83.748 105.864 83.985 106.183 83.188C106.472 82.466 106.436 81.603 106.104 81.271C105.772 80.939 105.536 81.529 105.579 82.583ZM280 98C279.66 98.55 279.832 99 280.382 99C280.932 99 281.66 98.55 282 98C282.34 97.45 282.168 97 281.618 97C281.068 97 280.34 97.45 280 98ZM340.25 108.706C341.488 108.944 343.512 108.944 344.75 108.706C345.988 108.467 344.975 108.272 342.5 108.272C340.025 108.272 339.012 108.467 340.25 108.706ZM259.5 109.882C259.5 110.432 259.95 111.16 260.5 111.5C261.05 111.84 261.5 111.668 261.5 111.118C261.5 110.568 261.05 109.84 260.5 109.5C259.95 109.16 259.5 109.332 259.5 109.882ZM349.157 110.452C348.837 111.286 347.716 111.734 346.523 111.504C345.381 111.284 344.71 111.531 345.032 112.052C346.204 113.947 350.5 113.121 350.5 111C350.5 108.645 349.938 108.416 349.157 110.452ZM328.5 111.393C328.5 112.512 329.411 113 331.5 113C333.15 113 334.5 112.55 334.5 112C334.5 111.45 333.862 111 333.082 111C332.302 111 330.952 110.727 330.082 110.393C329.044 109.995 328.5 110.338 328.5 111.393ZM339.954 110.926C340.261 111.423 339.947 112.057 339.256 112.336C338.565 112.614 339.012 112.878 340.25 112.921C342.817 113.011 343.272 111.51 340.948 110.618C340.094 110.291 339.647 110.429 339.954 110.926ZM93.187 116.044C87.022 117.079 83.692 119.296 81.916 123.546C79.593 129.105 79.824 229.805 82.156 227.872C83.672 226.615 83.755 222.353 83.137 177C82.508 130.851 82.582 127.263 84.231 124C86.803 118.912 91.358 117.007 101 116.986C106.535 116.975 108.538 116.671 107.5 116C105.758 114.874 100.044 114.892 93.187 116.044ZM112 116.079C110.35 116.456 120.294 116.817 134.097 116.882C161.703 117.012 161.268 116.918 164.807 123.5C166.146 125.99 166.444 126.16 166.56 124.5C166.677 122.818 166.827 122.897 167.5 125C168.16 127.06 168.316 127.148 168.385 125.5C168.499 122.809 166.982 120.584 165.612 121.431C164.981 121.821 164.5 121.455 164.5 120.585C164.5 116.491 159.111 115.503 136.5 115.448C124.675 115.419 113.65 115.703 112 116.079ZM14.313 118.683C15.034 118.972 15.897 118.936 16.229 118.604C16.561 118.272 15.971 118.036 14.917 118.079C13.752 118.127 13.515 118.364 14.313 118.683ZM99.5 118.962C89.841 119.967 88.081 121.359 85.542 130C84.515 133.494 84.514 133.493 84.938 129.052C85.219 126.114 85.052 125.095 84.447 126.052C83.943 126.848 83.576 134.475 83.631 143C83.687 151.525 83.922 157.6 84.155 156.5L85.058 152.25L85.538 150H162.5L162.53 193.75C162.552 224.164 162.874 236.963 163.587 235.737C164.152 234.767 164.667 231.65 164.732 228.809C164.807 225.487 165.105 224.332 165.567 225.572C166.269 227.455 166.302 227.453 166.983 225.5C167.677 223.512 169.698 218.858 170.193 218.107C170.335 217.892 171.25 218.334 172.226 219.09C173.68 220.217 173.651 220.057 172.068 218.202C169.334 215.001 170.88 210.712 175.022 210.002C179.856 209.173 180.069 203 175.263 203C173.414 203 171.36 203.54 170.7 204.2C169.767 205.133 169.452 199.967 169.282 180.95L169.064 156.5L168.532 176.5C167.889 200.663 166.522 191.593 166.498 163C166.481 143.191 164.432 125.729 161.694 122.05C160.218 120.067 158.596 119.36 154.398 118.87C147.259 118.036 107.758 118.102 99.5 118.962ZM7.5 124.441C7.5 126.398 7.95 128 8.5 128C9.05 128 9.5 126.677 9.5 125.059C9.5 123.441 9.05 121.84 8.5 121.5C7.905 121.132 7.5 122.323 7.5 124.441ZM379.658 123C379.658 124.375 379.885 124.938 380.162 124.25C380.44 123.563 380.44 122.438 380.162 121.75C379.885 121.063 379.658 121.625 379.658 123ZM14.5 123.059C14.5 123.641 14.95 123.84 15.5 123.5C16.05 123.16 16.5 123.61 16.5 124.5C16.5 125.39 16.05 125.84 15.5 125.5C14.937 125.152 14.535 125.891 14.579 127.191C14.622 128.461 14.886 128.935 15.164 128.244C15.443 127.553 16.082 127.242 16.585 127.553C17.088 127.864 17.5 126.741 17.5 125.059C17.5 123.007 17.006 122 16 122C15.175 122 14.5 122.477 14.5 123.059ZM271.6 126.295C270.335 128.402 270.357 128.423 272.079 126.774C273.07 125.824 273.666 124.832 273.403 124.569C273.14 124.306 272.329 125.083 271.6 126.295ZM379.579 128.583C379.627 129.748 379.864 129.985 380.183 129.188C380.472 128.466 380.436 127.603 380.104 127.271C379.772 126.939 379.536 127.529 379.579 128.583ZM114.743 130.25C117.327 134.159 129.375 133.97 131.506 129.988C132.534 128.068 132.241 128 122.913 128H113.256L114.743 130.25ZM167.658 134C167.658 135.375 167.885 135.938 168.162 135.25C168.44 134.563 168.44 133.438 168.162 132.75C167.885 132.063 167.658 132.625 167.658 134ZM230.454 151.633C215.978 167.057 214.81 168.066 212 167.558L209 167.015L211.34 168.83L213.681 170.645L210.075 173.573C208.091 175.183 205.013 177.706 203.234 179.18L200 181.861L203.456 185.441C207.038 189.151 226.848 205.238 228.583 205.845C229.124 206.034 230.227 205.641 231.034 204.972C234.682 201.944 230.447 194.303 226.49 196.774C223.907 198.387 222.9 196.549 224.809 193.706C225.624 192.493 231.288 186.351 237.395 180.058C243.503 173.765 248.5 168.252 248.5 167.808C248.5 167.364 248.937 167 249.47 167C250.583 167 263.5 152.131 263.5 150.85C263.5 150.386 261.99 148.317 260.144 146.253C258.299 144.189 256.198 141.376 255.477 140.003C254.701 138.526 253.995 138.015 253.749 138.753C253.144 140.568 252.011 140.301 248.78 137.583L245.907 135.165L230.454 151.633ZM162.658 138C162.658 139.375 162.885 139.938 163.162 139.25C163.44 138.563 163.44 137.438 163.162 136.75C162.885 136.063 162.658 136.625 162.658 138ZM89.571 139.956C88.822 140.419 88.485 141.519 88.823 142.399C89.573 144.354 93.5 144.542 93.5 142.622C93.5 140.575 91.15 138.98 89.571 139.956ZM154.5 140.499C153.486 141.721 153.456 142.356 154.37 143.27C155.799 144.699 159 143.064 159 140.905C159 138.911 156.04 138.644 154.5 140.499ZM164.786 148.5C164.794 151.25 164.988 152.256 165.218 150.736C165.447 149.216 165.441 146.966 165.204 145.736C164.967 144.506 164.779 145.75 164.786 148.5ZM89.75 148.716C91.263 148.945 93.737 148.945 95.25 148.716C96.763 148.487 95.525 148.3 92.5 148.3C89.475 148.3 88.237 148.487 89.75 148.716ZM267 166C265.092 166.82 265.103 166.863 267.25 166.93C268.488 166.968 269.5 166.55 269.5 166C269.5 165.45 269.387 165.032 269.25 165.07C269.113 165.109 268.1 165.527 267 166ZM118.256 175.107C116.197 177.364 114.755 179.603 115.052 180.084C115.349 180.565 115.067 181.98 114.424 183.229C113.596 184.838 114.397 184.406 117.17 181.75C119.34 179.671 122.094 178 123.351 178C124.729 178 125.354 177.574 124.946 176.913C124.577 176.315 123.473 176.035 122.493 176.291C121.367 176.586 120.788 176.247 120.916 175.368C121.187 173.527 122.557 172.301 125 171.713C126.646 171.317 126.557 171.212 124.5 171.118C122.763 171.039 120.857 172.257 118.256 175.107ZM135.998 182.934C138.182 185.26 138.477 185.928 137.084 185.394C135.594 184.822 135.365 184.974 136.047 186.08C136.694 187.128 136.253 187.062 134.365 185.828C131.867 184.194 131.817 184.208 132.242 186.432C132.568 188.139 131.722 189.495 128.861 191.854C123.728 196.085 121.411 195.882 117.078 190.82C115.11 188.521 113.5 187.08 113.5 187.617C113.5 188.796 120.2 195.301 123 196.84C124.74 197.796 124.772 197.943 123.25 197.97C122.287 197.986 121.5 198.52 121.5 199.155C121.5 199.794 120.567 199.465 119.412 198.42L117.323 196.53L119.162 199.759C121.97 204.691 126.747 204.396 129.436 199.126C131.309 195.453 136.708 190 138.47 190C141.907 190 139.458 183.084 135.25 180.906C133.378 179.936 133.504 180.277 135.998 182.934ZM109.75 182.674C106.79 184.74 106.5 191 109.365 191C110.391 191 112.528 191.976 114.115 193.169C115.91 194.519 115.323 193.581 112.559 190.687L108.118 186.035L110.483 183.518C113.179 180.649 112.981 180.421 109.75 182.674ZM129 193.497C126.8 195.382 125.589 196.942 126.309 196.962C127.029 196.983 127.34 197.45 127 198C125.44 200.523 128.297 198.628 130.821 195.464C134.778 190.506 133.766 189.413 129 193.497ZM123.313 201.683C124.034 201.972 124.897 201.936 125.229 201.604C125.561 201.272 124.971 201.036 123.917 201.079C122.752 201.127 122.515 201.364 123.313 201.683ZM167.223 207.25C166.368 211.143 166.413 221.57 167.278 220.267C168.099 219.03 168.871 205 168.118 205C167.897 205 167.495 206.012 167.223 207.25ZM12.5 206.393C12.5 206.609 13.198 207.054 14.052 207.382C14.942 207.723 15.343 207.555 14.993 206.989C14.406 206.038 12.5 205.583 12.5 206.393ZM182.997 214.579C180.799 215.344 178.887 215.977 178.75 215.985C178.613 215.993 178.5 216.9 178.5 218C178.5 219.333 177.833 220 176.5 220C175.4 220 174.5 220.436 174.5 220.969C174.5 221.501 175.243 221.652 176.151 221.304C177.607 220.745 177.719 221.293 177.099 225.965C176.41 231.158 176.441 231.247 178.698 230.549C180.188 230.097 181.689 229.684 183.201 229.312C184.96 228.891 185.628 227.65 186.52 223.143C187.135 220.039 187.85 216.75 188.11 215.834C188.81 213.361 187.454 213.028 182.997 214.579ZM188.229 223.604C187.828 224.005 187.529 225.496 187.563 226.917L187.627 229.5L188.592 227.086C189.632 224.484 189.417 222.417 188.229 223.604ZM77.195 230.111C75.806 230.919 75.65 231.476 76.521 232.525C77.396 233.58 77.183 234.181 75.576 235.185C74.434 235.898 73.529 237.385 73.563 238.491C73.624 240.397 73.672 240.389 74.5 238.335C74.98 237.145 76.144 235.739 77.088 235.211C78.364 234.497 80.278 228.847 79.182 229.03C79.082 229.047 78.188 229.533 77.195 230.111ZM165.017 240C168.241 245.766 168.679 246.134 170.095 244.268C171.764 242.068 171.926 240.174 170.307 241.793C169.383 242.717 168.557 242.48 166.646 240.743C165.288 239.509 164.555 239.175 165.017 240ZM75.5 244.192C75.5 244.468 76.4 245.732 77.5 247C78.6 248.268 79.5 248.857 79.5 248.308C79.5 247.759 78.6 246.495 77.5 245.5C76.4 244.505 75.5 243.916 75.5 244.192ZM81.264 259.149C80.739 262.724 82.932 268.568 85.113 269.405C85.973 269.735 86.193 269.335 85.78 268.199C85.202 266.614 85.29 266.611 87.08 268.157C88.136 269.068 90.912 270.323 93.25 270.946C95.588 271.568 97.5 272.397 97.501 272.789C97.502 273.725 157.355 273.581 160.18 272.638C161.7 272.13 163.138 269.874 164.93 265.184C168.166 256.716 168.223 255.361 165.249 257.604C163.791 258.704 162.999 260.359 162.999 262.306C163 263.958 162.438 265.502 161.75 265.738C160.924 266.021 160.5 265.1 160.5 263.023V259.879L127.628 260.168C104.769 260.369 94.336 260.121 93.378 259.354C92.62 258.748 90.425 258.308 88.5 258.376C85.161 258.494 85 258.668 85 262.156C85 264.166 84.662 265.602 84.25 265.347C83.838 265.091 83.493 263.446 83.485 261.691C83.462 256.873 81.867 255.047 81.264 259.149ZM170.155 268.829C168.066 271.137 168.067 272.397 170.161 274.128C171.676 275.38 171.702 275.308 170.455 273.306C169.26 271.388 169.323 270.854 170.949 269.056C171.973 267.925 172.585 267 172.31 267C172.035 267 171.065 267.823 170.155 268.829ZM156.51 270.892C154.965 271.322 154.457 271.855 155.17 272.296C156.529 273.136 159.5 272.173 159.5 270.893C159.5 270.402 159.387 270.045 159.25 270.1C159.113 270.155 157.88 270.511 156.51 270.892ZM166.5 279.393C166.5 279.609 167.198 280.054 168.052 280.382C168.942 280.723 169.343 280.555 168.993 279.989C168.406 279.038 166.5 278.583 166.5 279.393ZM38.5 290C36.672 291.181 38.251 291.181 41 290C42.319 289.433 42.489 289.122 41.5 289.086C40.675 289.055 39.325 289.467 38.5 290ZM19.535 294.934C17.958 297.881 18.301 298.729 20.057 296.223C22.339 292.965 24.219 293.464 24.684 297.451C25.002 300.172 24.816 300.677 23.804 299.838C23.099 299.252 22.749 298.405 23.027 297.956C23.305 297.506 23.075 296.856 22.516 296.51C21.931 296.149 21.5 296.943 21.5 298.382C21.5 301.558 19.934 302.576 18.592 300.271C16.686 296.998 17.478 300.036 19.639 304.29C25.144 315.124 28.54 319.388 30.28 317.648C31.66 316.268 31.725 315.511 30.704 312.689C30.042 310.857 29.5 308.377 29.5 307.179C29.5 305.981 29.067 305 28.539 305C27.279 305 25.205 297.236 25.828 294.853C26.526 292.185 20.968 292.256 19.535 294.934ZM134.5 294.059C134.5 294.641 134.05 294.84 133.5 294.5C132.95 294.16 132.5 294.535 132.5 295.334C132.5 297.223 135.03 298.156 138.079 297.391C141.124 296.627 141.223 294.427 138.25 293.63C135.091 292.784 134.5 292.851 134.5 294.059ZM364.5 297C363.599 297.582 363.475 297.975 364.191 297.985C364.846 297.993 365.66 297.55 366 297C366.767 295.758 366.421 295.758 364.5 297ZM368.5 296.632C368.5 296.98 369.366 298.667 370.425 300.382C371.483 302.097 372.496 304.85 372.675 306.5L373 309.5L362.762 312.071C351.552 314.886 348.128 316.603 356 315.462C363.072 314.437 373.046 311.252 374.439 309.573C375.826 307.903 374.508 301.863 371.968 298.25C370.487 296.142 368.5 295.215 368.5 296.632ZM71.25 299.662C71.938 299.94 73.063 299.94 73.75 299.662C74.438 299.385 73.875 299.158 72.5 299.158C71.125 299.158 70.563 299.385 71.25 299.662ZM39.313 300.683C40.034 300.972 40.897 300.936 41.229 300.604C41.561 300.272 40.971 300.036 39.917 300.079C38.752 300.127 38.515 300.364 39.313 300.683ZM50.792 300.742C54.527 300.935 60.377 300.934 63.792 300.739C67.206 300.545 64.15 300.387 57 300.389C49.85 300.39 47.056 300.55 50.792 300.742ZM294.704 302.045C293.931 303.283 293.865 304 294.523 304C295.095 304 295.829 303.306 296.155 302.457C297.055 300.111 296.083 299.836 294.704 302.045ZM210.499 302.627C210.5 303.377 212.091 303.583 215.25 303.244C221.565 302.566 221.632 302.271 215.565 301.851C212.265 301.622 210.499 301.893 210.499 302.627ZM135.283 303.25C133.291 304.807 134.605 309 137.086 309C137.993 309 140.302 310.375 142.215 312.055C148.718 317.765 151.844 313.536 146.536 306.208C143.273 301.703 138.775 300.521 135.283 303.25ZM284.268 303.725C286.065 303.947 288.765 303.943 290.268 303.715C291.771 303.486 290.3 303.304 287 303.31C283.7 303.315 282.471 303.502 284.268 303.725ZM205.515 306.133C205.507 307.032 206.512 308.038 207.75 308.37C210.138 309.01 258.126 309.26 257.417 308.629C257.188 308.425 245.754 307.939 232.01 307.549C214.712 307.058 206.79 306.48 206.275 305.67C205.774 304.883 205.526 305.035 205.515 306.133ZM297.767 305.718C299.436 305.97 300.267 306.567 299.862 307.223C299.461 307.871 299.656 308.022 300.345 307.595C302.544 306.237 301.485 305.001 298.25 305.15C295.201 305.29 295.171 305.325 297.767 305.718ZM327.25 308.117C322.803 310.369 322.699 310.899 326.081 314.076C328.609 316.451 328.69 316.46 330.081 314.559C331.213 313.01 332.227 305.683 331.25 306.109C331.113 306.169 329.313 307.072 327.25 308.117ZM275.281 308.056C282.585 308.471 289.785 308.442 291.281 307.991C292.939 307.492 287.758 307.197 278 307.236L262 307.301L275.281 308.056ZM338.515 311.191C338.507 312.121 338.95 313.16 339.5 313.5C340.766 314.282 340.766 312.958 339.5 311C338.665 309.707 338.529 309.734 338.515 311.191ZM159.8 319C159.8 322.025 159.987 323.262 160.216 321.75C160.445 320.238 160.445 317.762 160.216 316.25C159.987 314.738 159.8 315.975 159.8 319ZM305 319.692C295.327 321.416 292.795 322.912 291.952 327.405C290.32 336.104 294.624 338.042 306.995 334.181L315.586 331.5L315.293 324.751C315.13 320.996 314.556 318.061 314 318.135C313.45 318.208 309.4 318.908 305 319.692ZM301.5 331.5C301.5 332.325 302.385 333 303.469 333C304.808 333 305.253 332.52 304.862 331.5C304.545 330.675 303.659 330 302.893 330C302.127 330 301.5 330.675 301.5 331.5ZM169.985 357.672L168.284 361.257L161.892 360.743L155.5 360.23V362.997C155.5 365.746 155.555 365.768 163.963 366.468C187.048 368.391 205.722 363.519 186.5 360.588C184.025 360.211 179.679 358.594 176.843 356.995L171.686 354.088L169.985 357.672ZM120.324 372.338C170.303 372.849 232.313 372.861 265.324 372.365C315.528 371.612 304.214 371.496 178 371.473L33 371.445L120.324 372.338ZM343.288 373.222C341.017 374.99 339.131 375.347 331.67 375.417L322.764 375.5L322.064 392C321.68 401.075 321.668 409.288 322.039 410.25C322.823 412.284 352.5 412.999 352.5 410.985C352.5 408.282 349.011 397.367 347.834 396.389C347.099 395.778 345.394 395.489 344.045 395.747C341.674 396.2 341.632 396.11 342.782 393.063C343.716 390.59 343.705 389.745 342.734 389.144C341.843 388.594 342.33 387.579 344.468 385.531C347.73 382.406 347.911 382.566 348.935 389.5C350.163 397.808 353.986 411.249 355.26 411.738C357.578 412.627 357.65 411.382 355.629 405.367C354.546 402.14 352.705 395.675 351.539 391C350.373 386.325 348.763 380.803 347.96 378.73C346.002 373.672 346.07 373.324 349.25 372.162L352 371.158L349 371.135C347.35 371.122 344.78 372.061 343.288 373.222ZM344.704 378.955C345.375 380.03 346.064 380.769 346.236 380.598C346.828 380.005 345.282 377 344.385 377C343.889 377 344.032 377.88 344.704 378.955Z" fill="#303C52" stroke="#303C52"/>
</g>
<defs>
<clipPath id="clip0_105_313">
<rect width="412" height="412" fill="white" transform="translate(0.5)"/>
</clipPath>
</defs>
</svg>
